<?xml version="1.0" encoding="utf-8" standalone="no"?>
<!DOCTYPE svg PUBLIC "-//W3C//DTD SVG 1.1//EN"
  "http://www.w3.org/Graphics/SVG/1.1/DTD/svg11.dtd">
<svg xmlns:xlink="http://www.w3.org/1999/xlink" width="1105.92pt" height="548.928pt" viewBox="0 0 1105.92 548.928" xmlns="http://www.w3.org/2000/svg" version="1.1">
 <metadata>
  <rdf:RDF xmlns:dc="http://purl.org/dc/elements/1.1/" xmlns:cc="http://creativecommons.org/ns#" xmlns:rdf="http://www.w3.org/1999/02/22-rdf-syntax-ns#">
   <cc:Work>
    <dc:type rdf:resource="http://purl.org/dc/dcmitype/StillImage"/>
    <dc:date>2022-02-19T01:35:11.179185</dc:date>
    <dc:format>image/svg+xml</dc:format>
    <dc:creator>
     <cc:Agent>
      <dc:title>Matplotlib v3.5.1, https://matplotlib.org/</dc:title>
     </cc:Agent>
    </dc:creator>
   </cc:Work>
  </rdf:RDF>
 </metadata>
 <defs>
  <style type="text/css">*{stroke-linejoin: round; stroke-linecap: butt}</style>
 </defs>
 <g id="figure_1">
  <g id="patch_1">
   <path d="M 0 548.928 
L 1105.92 548.928 
L 1105.92 0 
L 0 0 
z
" style="fill: #ffffff"/>
  </g>
  <g id="axes_1">
   <g id="patch_2">
    <path d="M 138.24 488.54592 
L 527.825455 488.54592 
L 527.825455 65.87136 
L 138.24 65.87136 
z
" style="fill: #ffffff"/>
   </g>
   <g id="matplotlib.axis_1">
    <g id="xtick_1">
     <g id="line2d_1">
      <path d="M 155.94843 488.54592 
L 155.94843 65.87136 
" clip-path="url(#p37f27453c6)" style="fill: none; stroke: #b0b0b0; stroke-width: 0.8; stroke-linecap: square"/>
     </g>
     <g id="line2d_2">
      <defs>
       <path id="m2a7efe4ccb" d="M 0 0 
L 0 3.5 
" style="stroke: #000000; stroke-width: 0.8"/>
      </defs>
      <g>
       <use xlink:href="#m2a7efe4ccb" x="155.94843" y="488.54592" style="stroke: #000000; stroke-width: 0.8"/>
      </g>
     </g>
     <g id="text_1">
      <!-- 0.0 -->
      <g transform="translate(147.996867 503.144358)scale(0.1 -0.1)">
       <defs>
        <path id="DejaVuSans-30" d="M 2034 4250 
Q 1547 4250 1301 3770 
Q 1056 3291 1056 2328 
Q 1056 1369 1301 889 
Q 1547 409 2034 409 
Q 2525 409 2770 889 
Q 3016 1369 3016 2328 
Q 3016 3291 2770 3770 
Q 2525 4250 2034 4250 
z
M 2034 4750 
Q 2819 4750 3233 4129 
Q 3647 3509 3647 2328 
Q 3647 1150 3233 529 
Q 2819 -91 2034 -91 
Q 1250 -91 836 529 
Q 422 1150 422 2328 
Q 422 3509 836 4129 
Q 1250 4750 2034 4750 
z
" transform="scale(0.015625)"/>
        <path id="DejaVuSans-2e" d="M 684 794 
L 1344 794 
L 1344 0 
L 684 0 
L 684 794 
z
" transform="scale(0.015625)"/>
       </defs>
       <use xlink:href="#DejaVuSans-30"/>
       <use xlink:href="#DejaVuSans-2e" x="63.623047"/>
       <use xlink:href="#DejaVuSans-30" x="95.410156"/>
      </g>
     </g>
    </g>
    <g id="xtick_2">
     <g id="line2d_3">
      <path d="M 223.409115 488.54592 
L 223.409115 65.87136 
" clip-path="url(#p37f27453c6)" style="fill: none; stroke: #b0b0b0; stroke-width: 0.8; stroke-linecap: square"/>
     </g>
     <g id="line2d_4">
      <g>
       <use xlink:href="#m2a7efe4ccb" x="223.409115" y="488.54592" style="stroke: #000000; stroke-width: 0.8"/>
      </g>
     </g>
     <g id="text_2">
      <!-- 0.2 -->
      <g transform="translate(215.457552 503.144358)scale(0.1 -0.1)">
       <defs>
        <path id="DejaVuSans-32" d="M 1228 531 
L 3431 531 
L 3431 0 
L 469 0 
L 469 531 
Q 828 903 1448 1529 
Q 2069 2156 2228 2338 
Q 2531 2678 2651 2914 
Q 2772 3150 2772 3378 
Q 2772 3750 2511 3984 
Q 2250 4219 1831 4219 
Q 1534 4219 1204 4116 
Q 875 4013 500 3803 
L 500 4441 
Q 881 4594 1212 4672 
Q 1544 4750 1819 4750 
Q 2544 4750 2975 4387 
Q 3406 4025 3406 3419 
Q 3406 3131 3298 2873 
Q 3191 2616 2906 2266 
Q 2828 2175 2409 1742 
Q 1991 1309 1228 531 
z
" transform="scale(0.015625)"/>
       </defs>
       <use xlink:href="#DejaVuSans-30"/>
       <use xlink:href="#DejaVuSans-2e" x="63.623047"/>
       <use xlink:href="#DejaVuSans-32" x="95.410156"/>
      </g>
     </g>
    </g>
    <g id="xtick_3">
     <g id="line2d_5">
      <path d="M 290.869799 488.54592 
L 290.869799 65.87136 
" clip-path="url(#p37f27453c6)" style="fill: none; stroke: #b0b0b0; stroke-width: 0.8; stroke-linecap: square"/>
     </g>
     <g id="line2d_6">
      <g>
       <use xlink:href="#m2a7efe4ccb" x="290.869799" y="488.54592" style="stroke: #000000; stroke-width: 0.8"/>
      </g>
     </g>
     <g id="text_3">
      <!-- 0.4 -->
      <g transform="translate(282.918237 503.144358)scale(0.1 -0.1)">
       <defs>
        <path id="DejaVuSans-34" d="M 2419 4116 
L 825 1625 
L 2419 1625 
L 2419 4116 
z
M 2253 4666 
L 3047 4666 
L 3047 1625 
L 3713 1625 
L 3713 1100 
L 3047 1100 
L 3047 0 
L 2419 0 
L 2419 1100 
L 313 1100 
L 313 1709 
L 2253 4666 
z
" transform="scale(0.015625)"/>
       </defs>
       <use xlink:href="#DejaVuSans-30"/>
       <use xlink:href="#DejaVuSans-2e" x="63.623047"/>
       <use xlink:href="#DejaVuSans-34" x="95.410156"/>
      </g>
     </g>
    </g>
    <g id="xtick_4">
     <g id="line2d_7">
      <path d="M 358.330484 488.54592 
L 358.330484 65.87136 
" clip-path="url(#p37f27453c6)" style="fill: none; stroke: #b0b0b0; stroke-width: 0.8; stroke-linecap: square"/>
     </g>
     <g id="line2d_8">
      <g>
       <use xlink:href="#m2a7efe4ccb" x="358.330484" y="488.54592" style="stroke: #000000; stroke-width: 0.8"/>
      </g>
     </g>
     <g id="text_4">
      <!-- 0.6 -->
      <g transform="translate(350.378922 503.144358)scale(0.1 -0.1)">
       <defs>
        <path id="DejaVuSans-36" d="M 2113 2584 
Q 1688 2584 1439 2293 
Q 1191 2003 1191 1497 
Q 1191 994 1439 701 
Q 1688 409 2113 409 
Q 2538 409 2786 701 
Q 3034 994 3034 1497 
Q 3034 2003 2786 2293 
Q 2538 2584 2113 2584 
z
M 3366 4563 
L 3366 3988 
Q 3128 4100 2886 4159 
Q 2644 4219 2406 4219 
Q 1781 4219 1451 3797 
Q 1122 3375 1075 2522 
Q 1259 2794 1537 2939 
Q 1816 3084 2150 3084 
Q 2853 3084 3261 2657 
Q 3669 2231 3669 1497 
Q 3669 778 3244 343 
Q 2819 -91 2113 -91 
Q 1303 -91 875 529 
Q 447 1150 447 2328 
Q 447 3434 972 4092 
Q 1497 4750 2381 4750 
Q 2619 4750 2861 4703 
Q 3103 4656 3366 4563 
z
" transform="scale(0.015625)"/>
       </defs>
       <use xlink:href="#DejaVuSans-30"/>
       <use xlink:href="#DejaVuSans-2e" x="63.623047"/>
       <use xlink:href="#DejaVuSans-36" x="95.410156"/>
      </g>
     </g>
    </g>
    <g id="xtick_5">
     <g id="line2d_9">
      <path d="M 425.791169 488.54592 
L 425.791169 65.87136 
" clip-path="url(#p37f27453c6)" style="fill: none; stroke: #b0b0b0; stroke-width: 0.8; stroke-linecap: square"/>
     </g>
     <g id="line2d_10">
      <g>
       <use xlink:href="#m2a7efe4ccb" x="425.791169" y="488.54592" style="stroke: #000000; stroke-width: 0.8"/>
      </g>
     </g>
     <g id="text_5">
      <!-- 0.8 -->
      <g transform="translate(417.839606 503.144358)scale(0.1 -0.1)">
       <defs>
        <path id="DejaVuSans-38" d="M 2034 2216 
Q 1584 2216 1326 1975 
Q 1069 1734 1069 1313 
Q 1069 891 1326 650 
Q 1584 409 2034 409 
Q 2484 409 2743 651 
Q 3003 894 3003 1313 
Q 3003 1734 2745 1975 
Q 2488 2216 2034 2216 
z
M 1403 2484 
Q 997 2584 770 2862 
Q 544 3141 544 3541 
Q 544 4100 942 4425 
Q 1341 4750 2034 4750 
Q 2731 4750 3128 4425 
Q 3525 4100 3525 3541 
Q 3525 3141 3298 2862 
Q 3072 2584 2669 2484 
Q 3125 2378 3379 2068 
Q 3634 1759 3634 1313 
Q 3634 634 3220 271 
Q 2806 -91 2034 -91 
Q 1263 -91 848 271 
Q 434 634 434 1313 
Q 434 1759 690 2068 
Q 947 2378 1403 2484 
z
M 1172 3481 
Q 1172 3119 1398 2916 
Q 1625 2713 2034 2713 
Q 2441 2713 2670 2916 
Q 2900 3119 2900 3481 
Q 2900 3844 2670 4047 
Q 2441 4250 2034 4250 
Q 1625 4250 1398 4047 
Q 1172 3844 1172 3481 
z
" transform="scale(0.015625)"/>
       </defs>
       <use xlink:href="#DejaVuSans-30"/>
       <use xlink:href="#DejaVuSans-2e" x="63.623047"/>
       <use xlink:href="#DejaVuSans-38" x="95.410156"/>
      </g>
     </g>
    </g>
    <g id="xtick_6">
     <g id="line2d_11">
      <path d="M 493.251854 488.54592 
L 493.251854 65.87136 
" clip-path="url(#p37f27453c6)" style="fill: none; stroke: #b0b0b0; stroke-width: 0.8; stroke-linecap: square"/>
     </g>
     <g id="line2d_12">
      <g>
       <use xlink:href="#m2a7efe4ccb" x="493.251854" y="488.54592" style="stroke: #000000; stroke-width: 0.8"/>
      </g>
     </g>
     <g id="text_6">
      <!-- 1.0 -->
      <g transform="translate(485.300291 503.144358)scale(0.1 -0.1)">
       <defs>
        <path id="DejaVuSans-31" d="M 794 531 
L 1825 531 
L 1825 4091 
L 703 3866 
L 703 4441 
L 1819 4666 
L 2450 4666 
L 2450 531 
L 3481 531 
L 3481 0 
L 794 0 
L 794 531 
z
" transform="scale(0.015625)"/>
       </defs>
       <use xlink:href="#DejaVuSans-31"/>
       <use xlink:href="#DejaVuSans-2e" x="63.623047"/>
       <use xlink:href="#DejaVuSans-30" x="95.410156"/>
      </g>
     </g>
    </g>
   </g>
   <g id="matplotlib.axis_2">
    <g id="ytick_1">
     <g id="line2d_13">
      <path d="M 138.24 481.107725 
L 527.825455 481.107725 
" clip-path="url(#p37f27453c6)" style="fill: none; stroke: #b0b0b0; stroke-width: 0.8; stroke-linecap: square"/>
     </g>
     <g id="line2d_14">
      <defs>
       <path id="m28a605f1cb" d="M 0 0 
L -3.5 0 
" style="stroke: #000000; stroke-width: 0.8"/>
      </defs>
      <g>
       <use xlink:href="#m28a605f1cb" x="138.24" y="481.107725" style="stroke: #000000; stroke-width: 0.8"/>
      </g>
     </g>
     <g id="text_7">
      <!-- −0.6 -->
      <g transform="translate(106.957188 484.906944)scale(0.1 -0.1)">
       <defs>
        <path id="DejaVuSans-2212" d="M 678 2272 
L 4684 2272 
L 4684 1741 
L 678 1741 
L 678 2272 
z
" transform="scale(0.015625)"/>
       </defs>
       <use xlink:href="#DejaVuSans-2212"/>
       <use xlink:href="#DejaVuSans-30" x="83.789062"/>
       <use xlink:href="#DejaVuSans-2e" x="147.412109"/>
       <use xlink:href="#DejaVuSans-36" x="179.199219"/>
      </g>
     </g>
    </g>
    <g id="ytick_2">
     <g id="line2d_15">
      <path d="M 138.24 431.604739 
L 527.825455 431.604739 
" clip-path="url(#p37f27453c6)" style="fill: none; stroke: #b0b0b0; stroke-width: 0.8; stroke-linecap: square"/>
     </g>
     <g id="line2d_16">
      <g>
       <use xlink:href="#m28a605f1cb" x="138.24" y="431.604739" style="stroke: #000000; stroke-width: 0.8"/>
      </g>
     </g>
     <g id="text_8">
      <!-- −0.4 -->
      <g transform="translate(106.957188 435.403958)scale(0.1 -0.1)">
       <use xlink:href="#DejaVuSans-2212"/>
       <use xlink:href="#DejaVuSans-30" x="83.789062"/>
       <use xlink:href="#DejaVuSans-2e" x="147.412109"/>
       <use xlink:href="#DejaVuSans-34" x="179.199219"/>
      </g>
     </g>
    </g>
    <g id="ytick_3">
     <g id="line2d_17">
      <path d="M 138.24 382.101754 
L 527.825455 382.101754 
" clip-path="url(#p37f27453c6)" style="fill: none; stroke: #b0b0b0; stroke-width: 0.8; stroke-linecap: square"/>
     </g>
     <g id="line2d_18">
      <g>
       <use xlink:href="#m28a605f1cb" x="138.24" y="382.101754" style="stroke: #000000; stroke-width: 0.8"/>
      </g>
     </g>
     <g id="text_9">
      <!-- −0.2 -->
      <g transform="translate(106.957188 385.900973)scale(0.1 -0.1)">
       <use xlink:href="#DejaVuSans-2212"/>
       <use xlink:href="#DejaVuSans-30" x="83.789062"/>
       <use xlink:href="#DejaVuSans-2e" x="147.412109"/>
       <use xlink:href="#DejaVuSans-32" x="179.199219"/>
      </g>
     </g>
    </g>
    <g id="ytick_4">
     <g id="line2d_19">
      <path d="M 138.24 332.598768 
L 527.825455 332.598768 
" clip-path="url(#p37f27453c6)" style="fill: none; stroke: #b0b0b0; stroke-width: 0.8; stroke-linecap: square"/>
     </g>
     <g id="line2d_20">
      <g>
       <use xlink:href="#m28a605f1cb" x="138.24" y="332.598768" style="stroke: #000000; stroke-width: 0.8"/>
      </g>
     </g>
     <g id="text_10">
      <!-- 0.0 -->
      <g transform="translate(115.336875 336.397987)scale(0.1 -0.1)">
       <use xlink:href="#DejaVuSans-30"/>
       <use xlink:href="#DejaVuSans-2e" x="63.623047"/>
       <use xlink:href="#DejaVuSans-30" x="95.410156"/>
      </g>
     </g>
    </g>
    <g id="ytick_5">
     <g id="line2d_21">
      <path d="M 138.24 283.095783 
L 527.825455 283.095783 
" clip-path="url(#p37f27453c6)" style="fill: none; stroke: #b0b0b0; stroke-width: 0.8; stroke-linecap: square"/>
     </g>
     <g id="line2d_22">
      <g>
       <use xlink:href="#m28a605f1cb" x="138.24" y="283.095783" style="stroke: #000000; stroke-width: 0.8"/>
      </g>
     </g>
     <g id="text_11">
      <!-- 0.2 -->
      <g transform="translate(115.336875 286.895001)scale(0.1 -0.1)">
       <use xlink:href="#DejaVuSans-30"/>
       <use xlink:href="#DejaVuSans-2e" x="63.623047"/>
       <use xlink:href="#DejaVuSans-32" x="95.410156"/>
      </g>
     </g>
    </g>
    <g id="ytick_6">
     <g id="line2d_23">
      <path d="M 138.24 233.592797 
L 527.825455 233.592797 
" clip-path="url(#p37f27453c6)" style="fill: none; stroke: #b0b0b0; stroke-width: 0.8; stroke-linecap: square"/>
     </g>
     <g id="line2d_24">
      <g>
       <use xlink:href="#m28a605f1cb" x="138.24" y="233.592797" style="stroke: #000000; stroke-width: 0.8"/>
      </g>
     </g>
     <g id="text_12">
      <!-- 0.4 -->
      <g transform="translate(115.336875 237.392016)scale(0.1 -0.1)">
       <use xlink:href="#DejaVuSans-30"/>
       <use xlink:href="#DejaVuSans-2e" x="63.623047"/>
       <use xlink:href="#DejaVuSans-34" x="95.410156"/>
      </g>
     </g>
    </g>
    <g id="ytick_7">
     <g id="line2d_25">
      <path d="M 138.24 184.089811 
L 527.825455 184.089811 
" clip-path="url(#p37f27453c6)" style="fill: none; stroke: #b0b0b0; stroke-width: 0.8; stroke-linecap: square"/>
     </g>
     <g id="line2d_26">
      <g>
       <use xlink:href="#m28a605f1cb" x="138.24" y="184.089811" style="stroke: #000000; stroke-width: 0.8"/>
      </g>
     </g>
     <g id="text_13">
      <!-- 0.6 -->
      <g transform="translate(115.336875 187.88903)scale(0.1 -0.1)">
       <use xlink:href="#DejaVuSans-30"/>
       <use xlink:href="#DejaVuSans-2e" x="63.623047"/>
       <use xlink:href="#DejaVuSans-36" x="95.410156"/>
      </g>
     </g>
    </g>
    <g id="ytick_8">
     <g id="line2d_27">
      <path d="M 138.24 134.586826 
L 527.825455 134.586826 
" clip-path="url(#p37f27453c6)" style="fill: none; stroke: #b0b0b0; stroke-width: 0.8; stroke-linecap: square"/>
     </g>
     <g id="line2d_28">
      <g>
       <use xlink:href="#m28a605f1cb" x="138.24" y="134.586826" style="stroke: #000000; stroke-width: 0.8"/>
      </g>
     </g>
     <g id="text_14">
      <!-- 0.8 -->
      <g transform="translate(115.336875 138.386044)scale(0.1 -0.1)">
       <use xlink:href="#DejaVuSans-30"/>
       <use xlink:href="#DejaVuSans-2e" x="63.623047"/>
       <use xlink:href="#DejaVuSans-38" x="95.410156"/>
      </g>
     </g>
    </g>
    <g id="ytick_9">
     <g id="line2d_29">
      <path d="M 138.24 85.08384 
L 527.825455 85.08384 
" clip-path="url(#p37f27453c6)" style="fill: none; stroke: #b0b0b0; stroke-width: 0.8; stroke-linecap: square"/>
     </g>
     <g id="line2d_30">
      <g>
       <use xlink:href="#m28a605f1cb" x="138.24" y="85.08384" style="stroke: #000000; stroke-width: 0.8"/>
      </g>
     </g>
     <g id="text_15">
      <!-- 1.0 -->
      <g transform="translate(115.336875 88.883059)scale(0.1 -0.1)">
       <use xlink:href="#DejaVuSans-31"/>
       <use xlink:href="#DejaVuSans-2e" x="63.623047"/>
       <use xlink:href="#DejaVuSans-30" x="95.410156"/>
      </g>
     </g>
    </g>
   </g>
   <g id="line2d_31">
    <defs>
     <path id="mbd21cdce4f" d="M 0 2.5 
C 0.663008 2.5 1.29895 2.236584 1.767767 1.767767 
C 2.236584 1.29895 2.5 0.663008 2.5 0 
C 2.5 -0.663008 2.236584 -1.29895 1.767767 -1.767767 
C 1.29895 -2.236584 0.663008 -2.5 0 -2.5 
C -0.663008 -2.5 -1.29895 -2.236584 -1.767767 -1.767767 
C -2.236584 -1.29895 -2.5 -0.663008 -2.5 0 
C -2.5 0.663008 -2.236584 1.29895 -1.767767 1.767767 
C -1.29895 2.236584 -0.663008 2.5 0 2.5 
z
" style="stroke: #bf00bf"/>
    </defs>
    <g clip-path="url(#p37f27453c6)">
     <use xlink:href="#mbd21cdce4f" x="155.94843" y="85.08384" style="fill: #bf00bf; stroke: #bf00bf"/>
     <use xlink:href="#mbd21cdce4f" x="206.543943" y="124.990424" style="fill: #bf00bf; stroke: #bf00bf"/>
     <use xlink:href="#mbd21cdce4f" x="257.139457" y="170.393325" style="fill: #bf00bf; stroke: #bf00bf"/>
     <use xlink:href="#mbd21cdce4f" x="307.73497" y="221.106411" style="fill: #bf00bf; stroke: #bf00bf"/>
     <use xlink:href="#mbd21cdce4f" x="358.330484" y="276.824744" style="fill: #bf00bf; stroke: #bf00bf"/>
     <use xlink:href="#mbd21cdce4f" x="408.925998" y="337.130767" style="fill: #bf00bf; stroke: #bf00bf"/>
     <use xlink:href="#mbd21cdce4f" x="459.521511" y="401.504449" style="fill: #bf00bf; stroke: #bf00bf"/>
     <use xlink:href="#mbd21cdce4f" x="510.117025" y="469.33344" style="fill: #bf00bf; stroke: #bf00bf"/>
    </g>
   </g>
   <g id="line2d_32">
    <path d="M 307.73497 221.217051 
L 308.746881 222.33161 
L 309.758791 223.44617 
L 310.770701 224.56073 
L 311.782612 225.675289 
L 312.794522 226.789849 
L 313.806432 227.904409 
L 314.818342 229.018969 
L 315.830253 230.133528 
L 316.842163 231.248088 
L 317.854073 232.362648 
L 318.865983 233.477207 
L 319.877894 234.591767 
L 320.889804 235.706327 
L 321.901714 236.820887 
L 322.913625 237.935446 
L 323.925535 239.050006 
L 324.937445 240.164566 
L 325.949355 241.279126 
L 326.961266 242.393685 
L 327.973176 243.508245 
L 328.985086 244.622805 
L 329.996996 245.737364 
L 331.008907 246.851924 
L 332.020817 247.966484 
L 333.032727 249.081044 
L 334.044638 250.195603 
L 335.056548 251.310163 
L 336.068458 252.424723 
L 337.080368 253.539282 
L 338.092279 254.653842 
L 339.104189 255.768402 
L 340.116099 256.882962 
L 341.128009 257.997521 
L 342.13992 259.112081 
L 343.15183 260.226641 
L 344.16374 261.3412 
L 345.175651 262.45576 
L 346.187561 263.57032 
L 347.199471 264.68488 
L 348.211381 265.799439 
L 349.223292 266.913999 
L 350.235202 268.028559 
L 351.247112 269.143119 
L 352.259022 270.257678 
L 353.270933 271.372238 
L 354.282843 272.486798 
L 355.294753 273.601357 
L 356.306664 274.715917 
L 357.318574 275.830477 
" clip-path="url(#p37f27453c6)" style="fill: none; stroke: #99fa19; stroke-width: 1.5; stroke-linecap: square"/>
   </g>
   <g id="line2d_33">
    <path d="M 333.032727 249.081044 
" clip-path="url(#p37f27453c6)" style="fill: none; stroke: #ee3064; stroke-width: 1.5; stroke-linecap: square"/>
    <defs>
     <path id="m4d33f93fbc" d="M 0 3 
C 0.795609 3 1.55874 2.683901 2.12132 2.12132 
C 2.683901 1.55874 3 0.795609 3 0 
C 3 -0.795609 2.683901 -1.55874 2.12132 -2.12132 
C 1.55874 -2.683901 0.795609 -3 0 -3 
C -0.795609 -3 -1.55874 -2.683901 -2.12132 -2.12132 
C -2.683901 -1.55874 -3 -0.795609 -3 0 
C -3 0.795609 -2.683901 1.55874 -2.12132 2.12132 
C -1.55874 2.683901 -0.795609 3 0 3 
z
" style="stroke: #ee3064"/>
    </defs>
    <g clip-path="url(#p37f27453c6)">
     <use xlink:href="#m4d33f93fbc" x="333.032727" y="249.081044" style="fill: #ee3064; stroke: #ee3064"/>
    </g>
   </g>
   <g id="line2d_34">
    <path d="M 257.139457 170.47649 
L 259.163277 172.409103 
L 261.187098 174.349717 
L 263.210919 176.298332 
L 265.234739 178.25495 
L 267.25856 180.219569 
L 269.28238 182.19219 
L 271.306201 184.172812 
L 273.330021 186.161436 
L 275.353842 188.158062 
L 277.377662 190.162689 
L 279.401483 192.175318 
L 281.425303 194.195949 
L 283.449124 196.224581 
L 285.472945 198.261215 
L 287.496765 200.305851 
L 289.520586 202.358488 
L 291.544406 204.419127 
L 293.568227 206.487768 
L 295.592047 208.56441 
L 297.615868 210.649054 
L 299.639688 212.7417 
L 301.663509 214.842347 
L 303.687329 216.950996 
L 305.71115 219.067647 
L 307.73497 221.192299 
L 309.758791 223.324953 
L 311.782612 225.465609 
L 313.806432 227.614266 
L 315.830253 229.770925 
L 317.854073 231.935585 
L 319.877894 234.108248 
L 321.901714 236.288912 
L 323.925535 238.477577 
L 325.949355 240.674245 
L 327.973176 242.878913 
L 329.996996 245.091584 
L 332.020817 247.312256 
L 334.044638 249.54093 
L 336.068458 251.777606 
L 338.092279 254.022283 
L 340.116099 256.274962 
L 342.13992 258.535643 
L 344.16374 260.804325 
L 346.187561 263.081009 
L 348.211381 265.365694 
L 350.235202 267.658381 
L 352.259022 269.95907 
L 354.282843 272.267761 
L 356.306664 274.584453 
" clip-path="url(#p37f27453c6)" style="fill: none; stroke: #d90d85; stroke-width: 1.5; stroke-linecap: square"/>
   </g>
   <g id="line2d_35">
    <path d="M 333.032727 248.425593 
" clip-path="url(#p37f27453c6)" style="fill: none; stroke: #f81865; stroke-width: 1.5; stroke-linecap: square"/>
    <defs>
     <path id="m08c685ac86" d="M 0 3 
C 0.795609 3 1.55874 2.683901 2.12132 2.12132 
C 2.683901 1.55874 3 0.795609 3 0 
C 3 -0.795609 2.683901 -1.55874 2.12132 -2.12132 
C 1.55874 -2.683901 0.795609 -3 0 -3 
C -0.795609 -3 -1.55874 -2.683901 -2.12132 -2.12132 
C -2.683901 -1.55874 -3 -0.795609 -3 0 
C -3 0.795609 -2.683901 1.55874 -2.12132 2.12132 
C -1.55874 2.683901 -0.795609 3 0 3 
z
" style="stroke: #f81865"/>
    </defs>
    <g clip-path="url(#p37f27453c6)">
     <use xlink:href="#m08c685ac86" x="333.032727" y="248.425593" style="fill: #f81865; stroke: #f81865"/>
    </g>
   </g>
   <g id="line2d_36">
    <path d="M 257.139457 170.47649 
L 260.175188 173.370823 
L 263.210919 176.284567 
L 266.246649 179.217633 
L 269.28238 182.169931 
L 272.318111 185.141371 
L 275.353842 188.131863 
L 278.389573 191.141317 
L 281.425303 194.169644 
L 284.461034 197.216753 
L 287.496765 200.282554 
L 290.532496 203.366959 
L 293.568227 206.469876 
L 296.603957 209.591216 
L 299.639688 212.73089 
L 302.675419 215.888807 
L 305.71115 219.064878 
L 308.746881 222.259012 
L 311.782612 225.47112 
L 314.818342 228.701112 
L 317.854073 231.948898 
L 320.889804 235.214388 
L 323.925535 238.497493 
L 326.961266 241.798122 
L 329.996996 245.116185 
L 333.032727 248.451594 
L 336.068458 251.804257 
L 339.104189 255.174086 
L 342.13992 258.560989 
L 345.175651 261.964878 
L 348.211381 265.385663 
L 351.247112 268.823253 
L 354.282843 272.277559 
L 357.318574 275.748491 
L 360.354305 279.235958 
L 363.390035 282.739872 
L 366.425766 286.260143 
L 369.461497 289.79668 
L 372.497228 293.349393 
L 375.532959 296.918193 
L 378.568689 300.502991 
L 381.60442 304.103695 
L 384.640151 307.720216 
L 387.675882 311.352465 
L 390.711613 315.000351 
L 393.747344 318.663785 
L 396.783074 322.342677 
L 399.818805 326.036936 
L 402.854536 329.746474 
L 405.890267 333.471199 
" clip-path="url(#p37f27453c6)" style="fill: none; stroke: #f712a2; stroke-width: 1.5; stroke-linecap: square"/>
   </g>
   <g id="line2d_37">
    <path d="M 333.032727 248.451594 
" clip-path="url(#p37f27453c6)" style="fill: none; stroke: #4ddb3d; stroke-width: 1.5; stroke-linecap: square"/>
    <defs>
     <path id="m53c5703ffb" d="M 0 3 
C 0.795609 3 1.55874 2.683901 2.12132 2.12132 
C 2.683901 1.55874 3 0.795609 3 0 
C 3 -0.795609 2.683901 -1.55874 2.12132 -2.12132 
C 1.55874 -2.683901 0.795609 -3 0 -3 
C -0.795609 -3 -1.55874 -2.683901 -2.12132 -2.12132 
C -2.683901 -1.55874 -3 -0.795609 -3 0 
C -3 0.795609 -2.683901 1.55874 -2.12132 2.12132 
C -1.55874 2.683901 -0.795609 3 0 3 
z
" style="stroke: #4ddb3d"/>
    </defs>
    <g clip-path="url(#p37f27453c6)">
     <use xlink:href="#m53c5703ffb" x="333.032727" y="248.451594" style="fill: #4ddb3d; stroke: #4ddb3d"/>
    </g>
   </g>
   <g id="line2d_38">
    <path d="M 206.543943 124.933743 
L 210.591584 128.36547 
L 214.639226 131.832429 
L 218.686867 135.334543 
L 222.734508 138.871729 
L 226.782149 142.443901 
L 230.82979 146.050967 
L 234.877431 149.69283 
L 238.925072 153.369391 
L 242.972713 157.080542 
L 247.020354 160.826176 
L 251.067995 164.606178 
L 255.115636 168.420427 
L 259.163277 172.268802 
L 263.210919 176.151174 
L 267.25856 180.06741 
L 271.306201 184.017374 
L 275.353842 188.000922 
L 279.401483 192.01791 
L 283.449124 196.068187 
L 287.496765 200.151596 
L 291.544406 204.267978 
L 295.592047 208.417169 
L 299.639688 212.598999 
L 303.687329 216.813295 
L 307.73497 221.059879 
L 311.782612 225.338567 
L 315.830253 229.649173 
L 319.877894 233.991504 
L 323.925535 238.365365 
L 327.973176 242.770554 
L 332.020817 247.206865 
L 336.068458 251.67409 
L 340.116099 256.172012 
L 344.16374 260.700413 
L 348.211381 265.259069 
L 352.259022 269.847752 
L 356.306664 274.466228 
L 360.354305 279.114261 
L 364.401946 283.791608 
L 368.449587 288.498024 
L 372.497228 293.233255 
L 376.544869 297.997048 
L 380.59251 302.789142 
L 384.640151 307.609271 
L 388.687792 312.457168 
L 392.735433 317.332557 
L 396.783074 322.23516 
L 400.830715 327.164695 
L 404.878357 332.120874 
" clip-path="url(#p37f27453c6)" style="fill: none; stroke: #628af1; stroke-width: 1.5; stroke-linecap: square"/>
   </g>
   <g id="line2d_39">
    <path d="M 333.032727 248.320782 
" clip-path="url(#p37f27453c6)" style="fill: none; stroke: #f18388; stroke-width: 1.5; stroke-linecap: square"/>
    <defs>
     <path id="mef840bc434" d="M 0 3 
C 0.795609 3 1.55874 2.683901 2.12132 2.12132 
C 2.683901 1.55874 3 0.795609 3 0 
C 3 -0.795609 2.683901 -1.55874 2.12132 -2.12132 
C 1.55874 -2.683901 0.795609 -3 0 -3 
C -0.795609 -3 -1.55874 -2.683901 -2.12132 -2.12132 
C -2.683901 -1.55874 -3 -0.795609 -3 0 
C -3 0.795609 -2.683901 1.55874 -2.12132 2.12132 
C -1.55874 2.683901 -0.795609 3 0 3 
z
" style="stroke: #f18388"/>
    </defs>
    <g clip-path="url(#p37f27453c6)">
     <use xlink:href="#mef840bc434" x="333.032727" y="248.320782" style="fill: #f18388; stroke: #f18388"/>
    </g>
   </g>
   <g id="line2d_40">
    <path d="M 257.139457 170.47649 
L 262.199008 175.313426 
L 267.25856 180.203266 
L 272.318111 185.145746 
L 277.377662 190.140588 
L 282.437214 195.187505 
L 287.496765 200.286196 
L 292.556316 205.43635 
L 297.615868 210.637643 
L 302.675419 215.889741 
L 307.73497 221.192299 
L 312.794522 226.544959 
L 317.854073 231.947353 
L 322.913625 237.399101 
L 327.973176 242.899815 
L 333.032727 248.449092 
L 338.092279 254.04652 
L 343.15183 259.691679 
L 348.211381 265.384133 
L 353.270933 271.123441 
L 358.330484 276.909147 
L 363.390035 282.740788 
L 368.449587 288.617889 
L 373.509138 294.539966 
L 378.568689 300.506523 
L 383.628241 306.517057 
L 388.687792 312.571053 
L 393.747344 318.667986 
L 398.806895 324.807323 
L 403.866446 330.988519 
L 408.925998 337.211023 
L 413.985549 343.474272 
L 419.0451 349.777693 
L 424.104652 356.120706 
L 429.164203 362.502721 
L 434.223754 368.923138 
L 439.283306 375.38135 
L 444.342857 381.876739 
L 449.402409 388.40868 
L 454.46196 394.976537 
L 459.521511 401.579669 
L 464.581063 408.217423 
L 469.640614 414.889139 
L 474.700165 421.594149 
L 479.759717 428.331776 
L 484.819268 435.101336 
L 489.878819 441.902135 
L 494.938371 448.733474 
L 499.997922 455.594643 
L 505.057473 462.484926 
" clip-path="url(#p37f27453c6)" style="fill: none; stroke: #edb50f; stroke-width: 1.5; stroke-linecap: square"/>
   </g>
   <g id="line2d_41">
    <path d="M 333.032727 248.449092 
" clip-path="url(#p37f27453c6)" style="fill: none; stroke: #99a525; stroke-width: 1.5; stroke-linecap: square"/>
    <defs>
     <path id="mca5284b6ce" d="M 0 3 
C 0.795609 3 1.55874 2.683901 2.12132 2.12132 
C 2.683901 1.55874 3 0.795609 3 0 
C 3 -0.795609 2.683901 -1.55874 2.12132 -2.12132 
C 1.55874 -2.683901 0.795609 -3 0 -3 
C -0.795609 -3 -1.55874 -2.683901 -2.12132 -2.12132 
C -2.683901 -1.55874 -3 -0.795609 -3 0 
C -3 0.795609 -2.683901 1.55874 -2.12132 2.12132 
C -1.55874 2.683901 -0.795609 3 0 3 
z
" style="stroke: #99a525"/>
    </defs>
    <g clip-path="url(#p37f27453c6)">
     <use xlink:href="#mca5284b6ce" x="333.032727" y="248.449092" style="fill: #99a525; stroke: #99a525"/>
    </g>
   </g>
   <g id="patch_3">
    <path d="M 138.24 488.54592 
L 138.24 65.87136 
" style="fill: none; stroke: #000000; stroke-width: 0.8; stroke-linejoin: miter; stroke-linecap: square"/>
   </g>
   <g id="patch_4">
    <path d="M 527.825455 488.54592 
L 527.825455 65.87136 
" style="fill: none; stroke: #000000; stroke-width: 0.8; stroke-linejoin: miter; stroke-linecap: square"/>
   </g>
   <g id="patch_5">
    <path d="M 138.24 488.54592 
L 527.825455 488.54592 
" style="fill: none; stroke: #000000; stroke-width: 0.8; stroke-linejoin: miter; stroke-linecap: square"/>
   </g>
   <g id="patch_6">
    <path d="M 138.24 65.87136 
L 527.825455 65.87136 
" style="fill: none; stroke: #000000; stroke-width: 0.8; stroke-linejoin: miter; stroke-linecap: square"/>
   </g>
   <g id="text_16">
    <!-- Newton -->
    <g transform="translate(310.11929 59.87136)scale(0.12 -0.12)">
     <defs>
      <path id="DejaVuSans-4e" d="M 628 4666 
L 1478 4666 
L 3547 763 
L 3547 4666 
L 4159 4666 
L 4159 0 
L 3309 0 
L 1241 3903 
L 1241 0 
L 628 0 
L 628 4666 
z
" transform="scale(0.015625)"/>
      <path id="DejaVuSans-65" d="M 3597 1894 
L 3597 1613 
L 953 1613 
Q 991 1019 1311 708 
Q 1631 397 2203 397 
Q 2534 397 2845 478 
Q 3156 559 3463 722 
L 3463 178 
Q 3153 47 2828 -22 
Q 2503 -91 2169 -91 
Q 1331 -91 842 396 
Q 353 884 353 1716 
Q 353 2575 817 3079 
Q 1281 3584 2069 3584 
Q 2775 3584 3186 3129 
Q 3597 2675 3597 1894 
z
M 3022 2063 
Q 3016 2534 2758 2815 
Q 2500 3097 2075 3097 
Q 1594 3097 1305 2825 
Q 1016 2553 972 2059 
L 3022 2063 
z
" transform="scale(0.015625)"/>
      <path id="DejaVuSans-77" d="M 269 3500 
L 844 3500 
L 1563 769 
L 2278 3500 
L 2956 3500 
L 3675 769 
L 4391 3500 
L 4966 3500 
L 4050 0 
L 3372 0 
L 2619 2869 
L 1863 0 
L 1184 0 
L 269 3500 
z
" transform="scale(0.015625)"/>
      <path id="DejaVuSans-74" d="M 1172 4494 
L 1172 3500 
L 2356 3500 
L 2356 3053 
L 1172 3053 
L 1172 1153 
Q 1172 725 1289 603 
Q 1406 481 1766 481 
L 2356 481 
L 2356 0 
L 1766 0 
Q 1100 0 847 248 
Q 594 497 594 1153 
L 594 3053 
L 172 3053 
L 172 3500 
L 594 3500 
L 594 4494 
L 1172 4494 
z
" transform="scale(0.015625)"/>
      <path id="DejaVuSans-6f" d="M 1959 3097 
Q 1497 3097 1228 2736 
Q 959 2375 959 1747 
Q 959 1119 1226 758 
Q 1494 397 1959 397 
Q 2419 397 2687 759 
Q 2956 1122 2956 1747 
Q 2956 2369 2687 2733 
Q 2419 3097 1959 3097 
z
M 1959 3584 
Q 2709 3584 3137 3096 
Q 3566 2609 3566 1747 
Q 3566 888 3137 398 
Q 2709 -91 1959 -91 
Q 1206 -91 779 398 
Q 353 888 353 1747 
Q 353 2609 779 3096 
Q 1206 3584 1959 3584 
z
" transform="scale(0.015625)"/>
      <path id="DejaVuSans-6e" d="M 3513 2113 
L 3513 0 
L 2938 0 
L 2938 2094 
Q 2938 2591 2744 2837 
Q 2550 3084 2163 3084 
Q 1697 3084 1428 2787 
Q 1159 2491 1159 1978 
L 1159 0 
L 581 0 
L 581 3500 
L 1159 3500 
L 1159 2956 
Q 1366 3272 1645 3428 
Q 1925 3584 2291 3584 
Q 2894 3584 3203 3211 
Q 3513 2838 3513 2113 
z
" transform="scale(0.015625)"/>
     </defs>
     <use xlink:href="#DejaVuSans-4e"/>
     <use xlink:href="#DejaVuSans-65" x="74.804688"/>
     <use xlink:href="#DejaVuSans-77" x="136.328125"/>
     <use xlink:href="#DejaVuSans-74" x="218.115234"/>
     <use xlink:href="#DejaVuSans-6f" x="257.324219"/>
     <use xlink:href="#DejaVuSans-6e" x="318.505859"/>
    </g>
   </g>
   <g id="legend_1">
    <g id="patch_7">
     <path d="M 404.500455 235.330735 
L 520.825455 235.330735 
Q 522.825455 235.330735 522.825455 233.330735 
L 522.825455 72.87136 
Q 522.825455 70.87136 520.825455 70.87136 
L 404.500455 70.87136 
Q 402.500455 70.87136 402.500455 72.87136 
L 402.500455 233.330735 
Q 402.500455 235.330735 404.500455 235.330735 
z
" style="fill: #ffffff; opacity: 0.8; stroke: #cccccc; stroke-linejoin: miter"/>
    </g>
    <g id="line2d_42">
     <g>
      <use xlink:href="#mbd21cdce4f" x="416.500455" y="78.969797" style="fill: #bf00bf; stroke: #bf00bf"/>
     </g>
    </g>
    <g id="text_17">
     <!-- start points -->
     <g transform="translate(434.500455 82.469797)scale(0.1 -0.1)">
      <defs>
       <path id="DejaVuSans-73" d="M 2834 3397 
L 2834 2853 
Q 2591 2978 2328 3040 
Q 2066 3103 1784 3103 
Q 1356 3103 1142 2972 
Q 928 2841 928 2578 
Q 928 2378 1081 2264 
Q 1234 2150 1697 2047 
L 1894 2003 
Q 2506 1872 2764 1633 
Q 3022 1394 3022 966 
Q 3022 478 2636 193 
Q 2250 -91 1575 -91 
Q 1294 -91 989 -36 
Q 684 19 347 128 
L 347 722 
Q 666 556 975 473 
Q 1284 391 1588 391 
Q 1994 391 2212 530 
Q 2431 669 2431 922 
Q 2431 1156 2273 1281 
Q 2116 1406 1581 1522 
L 1381 1569 
Q 847 1681 609 1914 
Q 372 2147 372 2553 
Q 372 3047 722 3315 
Q 1072 3584 1716 3584 
Q 2034 3584 2315 3537 
Q 2597 3491 2834 3397 
z
" transform="scale(0.015625)"/>
       <path id="DejaVuSans-61" d="M 2194 1759 
Q 1497 1759 1228 1600 
Q 959 1441 959 1056 
Q 959 750 1161 570 
Q 1363 391 1709 391 
Q 2188 391 2477 730 
Q 2766 1069 2766 1631 
L 2766 1759 
L 2194 1759 
z
M 3341 1997 
L 3341 0 
L 2766 0 
L 2766 531 
Q 2569 213 2275 61 
Q 1981 -91 1556 -91 
Q 1019 -91 701 211 
Q 384 513 384 1019 
Q 384 1609 779 1909 
Q 1175 2209 1959 2209 
L 2766 2209 
L 2766 2266 
Q 2766 2663 2505 2880 
Q 2244 3097 1772 3097 
Q 1472 3097 1187 3025 
Q 903 2953 641 2809 
L 641 3341 
Q 956 3463 1253 3523 
Q 1550 3584 1831 3584 
Q 2591 3584 2966 3190 
Q 3341 2797 3341 1997 
z
" transform="scale(0.015625)"/>
       <path id="DejaVuSans-72" d="M 2631 2963 
Q 2534 3019 2420 3045 
Q 2306 3072 2169 3072 
Q 1681 3072 1420 2755 
Q 1159 2438 1159 1844 
L 1159 0 
L 581 0 
L 581 3500 
L 1159 3500 
L 1159 2956 
Q 1341 3275 1631 3429 
Q 1922 3584 2338 3584 
Q 2397 3584 2469 3576 
Q 2541 3569 2628 3553 
L 2631 2963 
z
" transform="scale(0.015625)"/>
       <path id="DejaVuSans-20" transform="scale(0.015625)"/>
       <path id="DejaVuSans-70" d="M 1159 525 
L 1159 -1331 
L 581 -1331 
L 581 3500 
L 1159 3500 
L 1159 2969 
Q 1341 3281 1617 3432 
Q 1894 3584 2278 3584 
Q 2916 3584 3314 3078 
Q 3713 2572 3713 1747 
Q 3713 922 3314 415 
Q 2916 -91 2278 -91 
Q 1894 -91 1617 61 
Q 1341 213 1159 525 
z
M 3116 1747 
Q 3116 2381 2855 2742 
Q 2594 3103 2138 3103 
Q 1681 3103 1420 2742 
Q 1159 2381 1159 1747 
Q 1159 1113 1420 752 
Q 1681 391 2138 391 
Q 2594 391 2855 752 
Q 3116 1113 3116 1747 
z
" transform="scale(0.015625)"/>
       <path id="DejaVuSans-69" d="M 603 3500 
L 1178 3500 
L 1178 0 
L 603 0 
L 603 3500 
z
M 603 4863 
L 1178 4863 
L 1178 4134 
L 603 4134 
L 603 4863 
z
" transform="scale(0.015625)"/>
      </defs>
      <use xlink:href="#DejaVuSans-73"/>
      <use xlink:href="#DejaVuSans-74" x="52.099609"/>
      <use xlink:href="#DejaVuSans-61" x="91.308594"/>
      <use xlink:href="#DejaVuSans-72" x="152.587891"/>
      <use xlink:href="#DejaVuSans-74" x="193.701172"/>
      <use xlink:href="#DejaVuSans-20" x="232.910156"/>
      <use xlink:href="#DejaVuSans-70" x="264.697266"/>
      <use xlink:href="#DejaVuSans-6f" x="328.173828"/>
      <use xlink:href="#DejaVuSans-69" x="389.355469"/>
      <use xlink:href="#DejaVuSans-6e" x="417.138672"/>
      <use xlink:href="#DejaVuSans-74" x="480.517578"/>
      <use xlink:href="#DejaVuSans-73" x="519.726562"/>
     </g>
    </g>
    <g id="line2d_43">
     <path d="M 406.500455 93.647922 
L 416.500455 93.647922 
L 426.500455 93.647922 
" style="fill: none; stroke: #99fa19; stroke-width: 1.5; stroke-linecap: square"/>
    </g>
    <g id="text_18">
     <!-- degree = 1 -->
     <g transform="translate(434.500455 97.147922)scale(0.1 -0.1)">
      <defs>
       <path id="DejaVuSans-64" d="M 2906 2969 
L 2906 4863 
L 3481 4863 
L 3481 0 
L 2906 0 
L 2906 525 
Q 2725 213 2448 61 
Q 2172 -91 1784 -91 
Q 1150 -91 751 415 
Q 353 922 353 1747 
Q 353 2572 751 3078 
Q 1150 3584 1784 3584 
Q 2172 3584 2448 3432 
Q 2725 3281 2906 2969 
z
M 947 1747 
Q 947 1113 1208 752 
Q 1469 391 1925 391 
Q 2381 391 2643 752 
Q 2906 1113 2906 1747 
Q 2906 2381 2643 2742 
Q 2381 3103 1925 3103 
Q 1469 3103 1208 2742 
Q 947 2381 947 1747 
z
" transform="scale(0.015625)"/>
       <path id="DejaVuSans-67" d="M 2906 1791 
Q 2906 2416 2648 2759 
Q 2391 3103 1925 3103 
Q 1463 3103 1205 2759 
Q 947 2416 947 1791 
Q 947 1169 1205 825 
Q 1463 481 1925 481 
Q 2391 481 2648 825 
Q 2906 1169 2906 1791 
z
M 3481 434 
Q 3481 -459 3084 -895 
Q 2688 -1331 1869 -1331 
Q 1566 -1331 1297 -1286 
Q 1028 -1241 775 -1147 
L 775 -588 
Q 1028 -725 1275 -790 
Q 1522 -856 1778 -856 
Q 2344 -856 2625 -561 
Q 2906 -266 2906 331 
L 2906 616 
Q 2728 306 2450 153 
Q 2172 0 1784 0 
Q 1141 0 747 490 
Q 353 981 353 1791 
Q 353 2603 747 3093 
Q 1141 3584 1784 3584 
Q 2172 3584 2450 3431 
Q 2728 3278 2906 2969 
L 2906 3500 
L 3481 3500 
L 3481 434 
z
" transform="scale(0.015625)"/>
       <path id="DejaVuSans-3d" d="M 678 2906 
L 4684 2906 
L 4684 2381 
L 678 2381 
L 678 2906 
z
M 678 1631 
L 4684 1631 
L 4684 1100 
L 678 1100 
L 678 1631 
z
" transform="scale(0.015625)"/>
      </defs>
      <use xlink:href="#DejaVuSans-64"/>
      <use xlink:href="#DejaVuSans-65" x="63.476562"/>
      <use xlink:href="#DejaVuSans-67" x="125"/>
      <use xlink:href="#DejaVuSans-72" x="188.476562"/>
      <use xlink:href="#DejaVuSans-65" x="227.339844"/>
      <use xlink:href="#DejaVuSans-65" x="288.863281"/>
      <use xlink:href="#DejaVuSans-20" x="350.386719"/>
      <use xlink:href="#DejaVuSans-3d" x="382.173828"/>
      <use xlink:href="#DejaVuSans-20" x="465.962891"/>
      <use xlink:href="#DejaVuSans-31" x="497.75"/>
     </g>
    </g>
    <g id="line2d_44">
     <path d="M 406.500455 108.326047 
L 416.500455 108.326047 
L 426.500455 108.326047 
" style="fill: none; stroke: #ee3064; stroke-width: 1.5; stroke-linecap: square"/>
     <g>
      <use xlink:href="#m4d33f93fbc" x="416.500455" y="108.326047" style="fill: #ee3064; stroke: #ee3064"/>
     </g>
    </g>
    <g id="text_19">
     <!-- 1: (0.525, 0.337) -->
     <g transform="translate(434.500455 111.826047)scale(0.1 -0.1)">
      <defs>
       <path id="DejaVuSans-3a" d="M 750 794 
L 1409 794 
L 1409 0 
L 750 0 
L 750 794 
z
M 750 3309 
L 1409 3309 
L 1409 2516 
L 750 2516 
L 750 3309 
z
" transform="scale(0.015625)"/>
       <path id="DejaVuSans-28" d="M 1984 4856 
Q 1566 4138 1362 3434 
Q 1159 2731 1159 2009 
Q 1159 1288 1364 580 
Q 1569 -128 1984 -844 
L 1484 -844 
Q 1016 -109 783 600 
Q 550 1309 550 2009 
Q 550 2706 781 3412 
Q 1013 4119 1484 4856 
L 1984 4856 
z
" transform="scale(0.015625)"/>
       <path id="DejaVuSans-35" d="M 691 4666 
L 3169 4666 
L 3169 4134 
L 1269 4134 
L 1269 2991 
Q 1406 3038 1543 3061 
Q 1681 3084 1819 3084 
Q 2600 3084 3056 2656 
Q 3513 2228 3513 1497 
Q 3513 744 3044 326 
Q 2575 -91 1722 -91 
Q 1428 -91 1123 -41 
Q 819 9 494 109 
L 494 744 
Q 775 591 1075 516 
Q 1375 441 1709 441 
Q 2250 441 2565 725 
Q 2881 1009 2881 1497 
Q 2881 1984 2565 2268 
Q 2250 2553 1709 2553 
Q 1456 2553 1204 2497 
Q 953 2441 691 2322 
L 691 4666 
z
" transform="scale(0.015625)"/>
       <path id="DejaVuSans-2c" d="M 750 794 
L 1409 794 
L 1409 256 
L 897 -744 
L 494 -744 
L 750 256 
L 750 794 
z
" transform="scale(0.015625)"/>
       <path id="DejaVuSans-33" d="M 2597 2516 
Q 3050 2419 3304 2112 
Q 3559 1806 3559 1356 
Q 3559 666 3084 287 
Q 2609 -91 1734 -91 
Q 1441 -91 1130 -33 
Q 819 25 488 141 
L 488 750 
Q 750 597 1062 519 
Q 1375 441 1716 441 
Q 2309 441 2620 675 
Q 2931 909 2931 1356 
Q 2931 1769 2642 2001 
Q 2353 2234 1838 2234 
L 1294 2234 
L 1294 2753 
L 1863 2753 
Q 2328 2753 2575 2939 
Q 2822 3125 2822 3475 
Q 2822 3834 2567 4026 
Q 2313 4219 1838 4219 
Q 1578 4219 1281 4162 
Q 984 4106 628 3988 
L 628 4550 
Q 988 4650 1302 4700 
Q 1616 4750 1894 4750 
Q 2613 4750 3031 4423 
Q 3450 4097 3450 3541 
Q 3450 3153 3228 2886 
Q 3006 2619 2597 2516 
z
" transform="scale(0.015625)"/>
       <path id="DejaVuSans-37" d="M 525 4666 
L 3525 4666 
L 3525 4397 
L 1831 0 
L 1172 0 
L 2766 4134 
L 525 4134 
L 525 4666 
z
" transform="scale(0.015625)"/>
       <path id="DejaVuSans-29" d="M 513 4856 
L 1013 4856 
Q 1481 4119 1714 3412 
Q 1947 2706 1947 2009 
Q 1947 1309 1714 600 
Q 1481 -109 1013 -844 
L 513 -844 
Q 928 -128 1133 580 
Q 1338 1288 1338 2009 
Q 1338 2731 1133 3434 
Q 928 4138 513 4856 
z
" transform="scale(0.015625)"/>
      </defs>
      <use xlink:href="#DejaVuSans-31"/>
      <use xlink:href="#DejaVuSans-3a" x="63.623047"/>
      <use xlink:href="#DejaVuSans-20" x="97.314453"/>
      <use xlink:href="#DejaVuSans-28" x="129.101562"/>
      <use xlink:href="#DejaVuSans-30" x="168.115234"/>
      <use xlink:href="#DejaVuSans-2e" x="231.738281"/>
      <use xlink:href="#DejaVuSans-35" x="263.525391"/>
      <use xlink:href="#DejaVuSans-32" x="327.148438"/>
      <use xlink:href="#DejaVuSans-35" x="390.771484"/>
      <use xlink:href="#DejaVuSans-2c" x="454.394531"/>
      <use xlink:href="#DejaVuSans-20" x="486.181641"/>
      <use xlink:href="#DejaVuSans-30" x="517.96875"/>
      <use xlink:href="#DejaVuSans-2e" x="581.591797"/>
      <use xlink:href="#DejaVuSans-33" x="613.378906"/>
      <use xlink:href="#DejaVuSans-33" x="677.001953"/>
      <use xlink:href="#DejaVuSans-37" x="740.625"/>
      <use xlink:href="#DejaVuSans-29" x="804.248047"/>
     </g>
    </g>
    <g id="line2d_45">
     <path d="M 406.500455 123.004172 
L 416.500455 123.004172 
L 426.500455 123.004172 
" style="fill: none; stroke: #d90d85; stroke-width: 1.5; stroke-linecap: square"/>
    </g>
    <g id="text_20">
     <!-- degree = 2 -->
     <g transform="translate(434.500455 126.504172)scale(0.1 -0.1)">
      <use xlink:href="#DejaVuSans-64"/>
      <use xlink:href="#DejaVuSans-65" x="63.476562"/>
      <use xlink:href="#DejaVuSans-67" x="125"/>
      <use xlink:href="#DejaVuSans-72" x="188.476562"/>
      <use xlink:href="#DejaVuSans-65" x="227.339844"/>
      <use xlink:href="#DejaVuSans-65" x="288.863281"/>
      <use xlink:href="#DejaVuSans-20" x="350.386719"/>
      <use xlink:href="#DejaVuSans-3d" x="382.173828"/>
      <use xlink:href="#DejaVuSans-20" x="465.962891"/>
      <use xlink:href="#DejaVuSans-32" x="497.75"/>
     </g>
    </g>
    <g id="line2d_46">
     <path d="M 406.500455 137.682297 
L 416.500455 137.682297 
L 426.500455 137.682297 
" style="fill: none; stroke: #f81865; stroke-width: 1.5; stroke-linecap: square"/>
     <g>
      <use xlink:href="#m08c685ac86" x="416.500455" y="137.682297" style="fill: #f81865; stroke: #f81865"/>
     </g>
    </g>
    <g id="text_21">
     <!-- 2: (0.525, 0.340) -->
     <g transform="translate(434.500455 141.182297)scale(0.1 -0.1)">
      <use xlink:href="#DejaVuSans-32"/>
      <use xlink:href="#DejaVuSans-3a" x="63.623047"/>
      <use xlink:href="#DejaVuSans-20" x="97.314453"/>
      <use xlink:href="#DejaVuSans-28" x="129.101562"/>
      <use xlink:href="#DejaVuSans-30" x="168.115234"/>
      <use xlink:href="#DejaVuSans-2e" x="231.738281"/>
      <use xlink:href="#DejaVuSans-35" x="263.525391"/>
      <use xlink:href="#DejaVuSans-32" x="327.148438"/>
      <use xlink:href="#DejaVuSans-35" x="390.771484"/>
      <use xlink:href="#DejaVuSans-2c" x="454.394531"/>
      <use xlink:href="#DejaVuSans-20" x="486.181641"/>
      <use xlink:href="#DejaVuSans-30" x="517.96875"/>
      <use xlink:href="#DejaVuSans-2e" x="581.591797"/>
      <use xlink:href="#DejaVuSans-33" x="613.378906"/>
      <use xlink:href="#DejaVuSans-34" x="677.001953"/>
      <use xlink:href="#DejaVuSans-30" x="740.625"/>
      <use xlink:href="#DejaVuSans-29" x="804.248047"/>
     </g>
    </g>
    <g id="line2d_47">
     <path d="M 406.500455 152.360422 
L 416.500455 152.360422 
L 426.500455 152.360422 
" style="fill: none; stroke: #f712a2; stroke-width: 1.5; stroke-linecap: square"/>
    </g>
    <g id="text_22">
     <!-- degree = 3 -->
     <g transform="translate(434.500455 155.860422)scale(0.1 -0.1)">
      <use xlink:href="#DejaVuSans-64"/>
      <use xlink:href="#DejaVuSans-65" x="63.476562"/>
      <use xlink:href="#DejaVuSans-67" x="125"/>
      <use xlink:href="#DejaVuSans-72" x="188.476562"/>
      <use xlink:href="#DejaVuSans-65" x="227.339844"/>
      <use xlink:href="#DejaVuSans-65" x="288.863281"/>
      <use xlink:href="#DejaVuSans-20" x="350.386719"/>
      <use xlink:href="#DejaVuSans-3d" x="382.173828"/>
      <use xlink:href="#DejaVuSans-20" x="465.962891"/>
      <use xlink:href="#DejaVuSans-33" x="497.75"/>
     </g>
    </g>
    <g id="line2d_48">
     <path d="M 406.500455 167.038547 
L 416.500455 167.038547 
L 426.500455 167.038547 
" style="fill: none; stroke: #4ddb3d; stroke-width: 1.5; stroke-linecap: square"/>
     <g>
      <use xlink:href="#m53c5703ffb" x="416.500455" y="167.038547" style="fill: #4ddb3d; stroke: #4ddb3d"/>
     </g>
    </g>
    <g id="text_23">
     <!-- 3: (0.525, 0.340) -->
     <g transform="translate(434.500455 170.538547)scale(0.1 -0.1)">
      <use xlink:href="#DejaVuSans-33"/>
      <use xlink:href="#DejaVuSans-3a" x="63.623047"/>
      <use xlink:href="#DejaVuSans-20" x="97.314453"/>
      <use xlink:href="#DejaVuSans-28" x="129.101562"/>
      <use xlink:href="#DejaVuSans-30" x="168.115234"/>
      <use xlink:href="#DejaVuSans-2e" x="231.738281"/>
      <use xlink:href="#DejaVuSans-35" x="263.525391"/>
      <use xlink:href="#DejaVuSans-32" x="327.148438"/>
      <use xlink:href="#DejaVuSans-35" x="390.771484"/>
      <use xlink:href="#DejaVuSans-2c" x="454.394531"/>
      <use xlink:href="#DejaVuSans-20" x="486.181641"/>
      <use xlink:href="#DejaVuSans-30" x="517.96875"/>
      <use xlink:href="#DejaVuSans-2e" x="581.591797"/>
      <use xlink:href="#DejaVuSans-33" x="613.378906"/>
      <use xlink:href="#DejaVuSans-34" x="677.001953"/>
      <use xlink:href="#DejaVuSans-30" x="740.625"/>
      <use xlink:href="#DejaVuSans-29" x="804.248047"/>
     </g>
    </g>
    <g id="line2d_49">
     <path d="M 406.500455 181.716672 
L 416.500455 181.716672 
L 426.500455 181.716672 
" style="fill: none; stroke: #628af1; stroke-width: 1.5; stroke-linecap: square"/>
    </g>
    <g id="text_24">
     <!-- degree = 4 -->
     <g transform="translate(434.500455 185.216672)scale(0.1 -0.1)">
      <use xlink:href="#DejaVuSans-64"/>
      <use xlink:href="#DejaVuSans-65" x="63.476562"/>
      <use xlink:href="#DejaVuSans-67" x="125"/>
      <use xlink:href="#DejaVuSans-72" x="188.476562"/>
      <use xlink:href="#DejaVuSans-65" x="227.339844"/>
      <use xlink:href="#DejaVuSans-65" x="288.863281"/>
      <use xlink:href="#DejaVuSans-20" x="350.386719"/>
      <use xlink:href="#DejaVuSans-3d" x="382.173828"/>
      <use xlink:href="#DejaVuSans-20" x="465.962891"/>
      <use xlink:href="#DejaVuSans-34" x="497.75"/>
     </g>
    </g>
    <g id="line2d_50">
     <path d="M 406.500455 196.394797 
L 416.500455 196.394797 
L 426.500455 196.394797 
" style="fill: none; stroke: #f18388; stroke-width: 1.5; stroke-linecap: square"/>
     <g>
      <use xlink:href="#mef840bc434" x="416.500455" y="196.394797" style="fill: #f18388; stroke: #f18388"/>
     </g>
    </g>
    <g id="text_25">
     <!-- 4: (0.525, 0.340) -->
     <g transform="translate(434.500455 199.894797)scale(0.1 -0.1)">
      <use xlink:href="#DejaVuSans-34"/>
      <use xlink:href="#DejaVuSans-3a" x="63.623047"/>
      <use xlink:href="#DejaVuSans-20" x="97.314453"/>
      <use xlink:href="#DejaVuSans-28" x="129.101562"/>
      <use xlink:href="#DejaVuSans-30" x="168.115234"/>
      <use xlink:href="#DejaVuSans-2e" x="231.738281"/>
      <use xlink:href="#DejaVuSans-35" x="263.525391"/>
      <use xlink:href="#DejaVuSans-32" x="327.148438"/>
      <use xlink:href="#DejaVuSans-35" x="390.771484"/>
      <use xlink:href="#DejaVuSans-2c" x="454.394531"/>
      <use xlink:href="#DejaVuSans-20" x="486.181641"/>
      <use xlink:href="#DejaVuSans-30" x="517.96875"/>
      <use xlink:href="#DejaVuSans-2e" x="581.591797"/>
      <use xlink:href="#DejaVuSans-33" x="613.378906"/>
      <use xlink:href="#DejaVuSans-34" x="677.001953"/>
      <use xlink:href="#DejaVuSans-30" x="740.625"/>
      <use xlink:href="#DejaVuSans-29" x="804.248047"/>
     </g>
    </g>
    <g id="line2d_51">
     <path d="M 406.500455 211.072922 
L 416.500455 211.072922 
L 426.500455 211.072922 
" style="fill: none; stroke: #edb50f; stroke-width: 1.5; stroke-linecap: square"/>
    </g>
    <g id="text_26">
     <!-- degree = 5 -->
     <g transform="translate(434.500455 214.572922)scale(0.1 -0.1)">
      <use xlink:href="#DejaVuSans-64"/>
      <use xlink:href="#DejaVuSans-65" x="63.476562"/>
      <use xlink:href="#DejaVuSans-67" x="125"/>
      <use xlink:href="#DejaVuSans-72" x="188.476562"/>
      <use xlink:href="#DejaVuSans-65" x="227.339844"/>
      <use xlink:href="#DejaVuSans-65" x="288.863281"/>
      <use xlink:href="#DejaVuSans-20" x="350.386719"/>
      <use xlink:href="#DejaVuSans-3d" x="382.173828"/>
      <use xlink:href="#DejaVuSans-20" x="465.962891"/>
      <use xlink:href="#DejaVuSans-35" x="497.75"/>
     </g>
    </g>
    <g id="line2d_52">
     <path d="M 406.500455 225.751047 
L 416.500455 225.751047 
L 426.500455 225.751047 
" style="fill: none; stroke: #99a525; stroke-width: 1.5; stroke-linecap: square"/>
     <g>
      <use xlink:href="#mca5284b6ce" x="416.500455" y="225.751047" style="fill: #99a525; stroke: #99a525"/>
     </g>
    </g>
    <g id="text_27">
     <!-- 5: (0.525, 0.340) -->
     <g transform="translate(434.500455 229.251047)scale(0.1 -0.1)">
      <use xlink:href="#DejaVuSans-35"/>
      <use xlink:href="#DejaVuSans-3a" x="63.623047"/>
      <use xlink:href="#DejaVuSans-20" x="97.314453"/>
      <use xlink:href="#DejaVuSans-28" x="129.101562"/>
      <use xlink:href="#DejaVuSans-30" x="168.115234"/>
      <use xlink:href="#DejaVuSans-2e" x="231.738281"/>
      <use xlink:href="#DejaVuSans-35" x="263.525391"/>
      <use xlink:href="#DejaVuSans-32" x="327.148438"/>
      <use xlink:href="#DejaVuSans-35" x="390.771484"/>
      <use xlink:href="#DejaVuSans-2c" x="454.394531"/>
      <use xlink:href="#DejaVuSans-20" x="486.181641"/>
      <use xlink:href="#DejaVuSans-30" x="517.96875"/>
      <use xlink:href="#DejaVuSans-2e" x="581.591797"/>
      <use xlink:href="#DejaVuSans-33" x="613.378906"/>
      <use xlink:href="#DejaVuSans-34" x="677.001953"/>
      <use xlink:href="#DejaVuSans-30" x="740.625"/>
      <use xlink:href="#DejaVuSans-29" x="804.248047"/>
     </g>
    </g>
   </g>
  </g>
  <g id="axes_2">
   <g id="patch_8">
    <path d="M 605.742545 488.54592 
L 995.328 488.54592 
L 995.328 65.87136 
L 605.742545 65.87136 
z
" style="fill: #ffffff"/>
   </g>
   <g id="matplotlib.axis_3">
    <g id="xtick_7">
     <g id="line2d_53">
      <path d="M 623.450975 488.54592 
L 623.450975 65.87136 
" clip-path="url(#p3eb4b6042d)" style="fill: none; stroke: #b0b0b0; stroke-width: 0.8; stroke-linecap: square"/>
     </g>
     <g id="line2d_54">
      <g>
       <use xlink:href="#m2a7efe4ccb" x="623.450975" y="488.54592" style="stroke: #000000; stroke-width: 0.8"/>
      </g>
     </g>
     <g id="text_28">
      <!-- 0.0 -->
      <g transform="translate(615.499413 503.144358)scale(0.1 -0.1)">
       <use xlink:href="#DejaVuSans-30"/>
       <use xlink:href="#DejaVuSans-2e" x="63.623047"/>
       <use xlink:href="#DejaVuSans-30" x="95.410156"/>
      </g>
     </g>
    </g>
    <g id="xtick_8">
     <g id="line2d_55">
      <path d="M 690.91166 488.54592 
L 690.91166 65.87136 
" clip-path="url(#p3eb4b6042d)" style="fill: none; stroke: #b0b0b0; stroke-width: 0.8; stroke-linecap: square"/>
     </g>
     <g id="line2d_56">
      <g>
       <use xlink:href="#m2a7efe4ccb" x="690.91166" y="488.54592" style="stroke: #000000; stroke-width: 0.8"/>
      </g>
     </g>
     <g id="text_29">
      <!-- 0.2 -->
      <g transform="translate(682.960097 503.144358)scale(0.1 -0.1)">
       <use xlink:href="#DejaVuSans-30"/>
       <use xlink:href="#DejaVuSans-2e" x="63.623047"/>
       <use xlink:href="#DejaVuSans-32" x="95.410156"/>
      </g>
     </g>
    </g>
    <g id="xtick_9">
     <g id="line2d_57">
      <path d="M 758.372345 488.54592 
L 758.372345 65.87136 
" clip-path="url(#p3eb4b6042d)" style="fill: none; stroke: #b0b0b0; stroke-width: 0.8; stroke-linecap: square"/>
     </g>
     <g id="line2d_58">
      <g>
       <use xlink:href="#m2a7efe4ccb" x="758.372345" y="488.54592" style="stroke: #000000; stroke-width: 0.8"/>
      </g>
     </g>
     <g id="text_30">
      <!-- 0.4 -->
      <g transform="translate(750.420782 503.144358)scale(0.1 -0.1)">
       <use xlink:href="#DejaVuSans-30"/>
       <use xlink:href="#DejaVuSans-2e" x="63.623047"/>
       <use xlink:href="#DejaVuSans-34" x="95.410156"/>
      </g>
     </g>
    </g>
    <g id="xtick_10">
     <g id="line2d_59">
      <path d="M 825.83303 488.54592 
L 825.83303 65.87136 
" clip-path="url(#p3eb4b6042d)" style="fill: none; stroke: #b0b0b0; stroke-width: 0.8; stroke-linecap: square"/>
     </g>
     <g id="line2d_60">
      <g>
       <use xlink:href="#m2a7efe4ccb" x="825.83303" y="488.54592" style="stroke: #000000; stroke-width: 0.8"/>
      </g>
     </g>
     <g id="text_31">
      <!-- 0.6 -->
      <g transform="translate(817.881467 503.144358)scale(0.1 -0.1)">
       <use xlink:href="#DejaVuSans-30"/>
       <use xlink:href="#DejaVuSans-2e" x="63.623047"/>
       <use xlink:href="#DejaVuSans-36" x="95.410156"/>
      </g>
     </g>
    </g>
    <g id="xtick_11">
     <g id="line2d_61">
      <path d="M 893.293714 488.54592 
L 893.293714 65.87136 
" clip-path="url(#p3eb4b6042d)" style="fill: none; stroke: #b0b0b0; stroke-width: 0.8; stroke-linecap: square"/>
     </g>
     <g id="line2d_62">
      <g>
       <use xlink:href="#m2a7efe4ccb" x="893.293714" y="488.54592" style="stroke: #000000; stroke-width: 0.8"/>
      </g>
     </g>
     <g id="text_32">
      <!-- 0.8 -->
      <g transform="translate(885.342152 503.144358)scale(0.1 -0.1)">
       <use xlink:href="#DejaVuSans-30"/>
       <use xlink:href="#DejaVuSans-2e" x="63.623047"/>
       <use xlink:href="#DejaVuSans-38" x="95.410156"/>
      </g>
     </g>
    </g>
    <g id="xtick_12">
     <g id="line2d_63">
      <path d="M 960.754399 488.54592 
L 960.754399 65.87136 
" clip-path="url(#p3eb4b6042d)" style="fill: none; stroke: #b0b0b0; stroke-width: 0.8; stroke-linecap: square"/>
     </g>
     <g id="line2d_64">
      <g>
       <use xlink:href="#m2a7efe4ccb" x="960.754399" y="488.54592" style="stroke: #000000; stroke-width: 0.8"/>
      </g>
     </g>
     <g id="text_33">
      <!-- 1.0 -->
      <g transform="translate(952.802837 503.144358)scale(0.1 -0.1)">
       <use xlink:href="#DejaVuSans-31"/>
       <use xlink:href="#DejaVuSans-2e" x="63.623047"/>
       <use xlink:href="#DejaVuSans-30" x="95.410156"/>
      </g>
     </g>
    </g>
   </g>
   <g id="matplotlib.axis_4">
    <g id="ytick_10">
     <g id="line2d_65">
      <path d="M 605.742545 481.107725 
L 995.328 481.107725 
" clip-path="url(#p3eb4b6042d)" style="fill: none; stroke: #b0b0b0; stroke-width: 0.8; stroke-linecap: square"/>
     </g>
     <g id="line2d_66">
      <g>
       <use xlink:href="#m28a605f1cb" x="605.742545" y="481.107725" style="stroke: #000000; stroke-width: 0.8"/>
      </g>
     </g>
     <g id="text_34">
      <!-- −0.6 -->
      <g transform="translate(574.459733 484.906944)scale(0.1 -0.1)">
       <use xlink:href="#DejaVuSans-2212"/>
       <use xlink:href="#DejaVuSans-30" x="83.789062"/>
       <use xlink:href="#DejaVuSans-2e" x="147.412109"/>
       <use xlink:href="#DejaVuSans-36" x="179.199219"/>
      </g>
     </g>
    </g>
    <g id="ytick_11">
     <g id="line2d_67">
      <path d="M 605.742545 431.604739 
L 995.328 431.604739 
" clip-path="url(#p3eb4b6042d)" style="fill: none; stroke: #b0b0b0; stroke-width: 0.8; stroke-linecap: square"/>
     </g>
     <g id="line2d_68">
      <g>
       <use xlink:href="#m28a605f1cb" x="605.742545" y="431.604739" style="stroke: #000000; stroke-width: 0.8"/>
      </g>
     </g>
     <g id="text_35">
      <!-- −0.4 -->
      <g transform="translate(574.459733 435.403958)scale(0.1 -0.1)">
       <use xlink:href="#DejaVuSans-2212"/>
       <use xlink:href="#DejaVuSans-30" x="83.789062"/>
       <use xlink:href="#DejaVuSans-2e" x="147.412109"/>
       <use xlink:href="#DejaVuSans-34" x="179.199219"/>
      </g>
     </g>
    </g>
    <g id="ytick_12">
     <g id="line2d_69">
      <path d="M 605.742545 382.101754 
L 995.328 382.101754 
" clip-path="url(#p3eb4b6042d)" style="fill: none; stroke: #b0b0b0; stroke-width: 0.8; stroke-linecap: square"/>
     </g>
     <g id="line2d_70">
      <g>
       <use xlink:href="#m28a605f1cb" x="605.742545" y="382.101754" style="stroke: #000000; stroke-width: 0.8"/>
      </g>
     </g>
     <g id="text_36">
      <!-- −0.2 -->
      <g transform="translate(574.459733 385.900973)scale(0.1 -0.1)">
       <use xlink:href="#DejaVuSans-2212"/>
       <use xlink:href="#DejaVuSans-30" x="83.789062"/>
       <use xlink:href="#DejaVuSans-2e" x="147.412109"/>
       <use xlink:href="#DejaVuSans-32" x="179.199219"/>
      </g>
     </g>
    </g>
    <g id="ytick_13">
     <g id="line2d_71">
      <path d="M 605.742545 332.598768 
L 995.328 332.598768 
" clip-path="url(#p3eb4b6042d)" style="fill: none; stroke: #b0b0b0; stroke-width: 0.8; stroke-linecap: square"/>
     </g>
     <g id="line2d_72">
      <g>
       <use xlink:href="#m28a605f1cb" x="605.742545" y="332.598768" style="stroke: #000000; stroke-width: 0.8"/>
      </g>
     </g>
     <g id="text_37">
      <!-- 0.0 -->
      <g transform="translate(582.83942 336.397987)scale(0.1 -0.1)">
       <use xlink:href="#DejaVuSans-30"/>
       <use xlink:href="#DejaVuSans-2e" x="63.623047"/>
       <use xlink:href="#DejaVuSans-30" x="95.410156"/>
      </g>
     </g>
    </g>
    <g id="ytick_14">
     <g id="line2d_73">
      <path d="M 605.742545 283.095783 
L 995.328 283.095783 
" clip-path="url(#p3eb4b6042d)" style="fill: none; stroke: #b0b0b0; stroke-width: 0.8; stroke-linecap: square"/>
     </g>
     <g id="line2d_74">
      <g>
       <use xlink:href="#m28a605f1cb" x="605.742545" y="283.095783" style="stroke: #000000; stroke-width: 0.8"/>
      </g>
     </g>
     <g id="text_38">
      <!-- 0.2 -->
      <g transform="translate(582.83942 286.895001)scale(0.1 -0.1)">
       <use xlink:href="#DejaVuSans-30"/>
       <use xlink:href="#DejaVuSans-2e" x="63.623047"/>
       <use xlink:href="#DejaVuSans-32" x="95.410156"/>
      </g>
     </g>
    </g>
    <g id="ytick_15">
     <g id="line2d_75">
      <path d="M 605.742545 233.592797 
L 995.328 233.592797 
" clip-path="url(#p3eb4b6042d)" style="fill: none; stroke: #b0b0b0; stroke-width: 0.8; stroke-linecap: square"/>
     </g>
     <g id="line2d_76">
      <g>
       <use xlink:href="#m28a605f1cb" x="605.742545" y="233.592797" style="stroke: #000000; stroke-width: 0.8"/>
      </g>
     </g>
     <g id="text_39">
      <!-- 0.4 -->
      <g transform="translate(582.83942 237.392016)scale(0.1 -0.1)">
       <use xlink:href="#DejaVuSans-30"/>
       <use xlink:href="#DejaVuSans-2e" x="63.623047"/>
       <use xlink:href="#DejaVuSans-34" x="95.410156"/>
      </g>
     </g>
    </g>
    <g id="ytick_16">
     <g id="line2d_77">
      <path d="M 605.742545 184.089811 
L 995.328 184.089811 
" clip-path="url(#p3eb4b6042d)" style="fill: none; stroke: #b0b0b0; stroke-width: 0.8; stroke-linecap: square"/>
     </g>
     <g id="line2d_78">
      <g>
       <use xlink:href="#m28a605f1cb" x="605.742545" y="184.089811" style="stroke: #000000; stroke-width: 0.8"/>
      </g>
     </g>
     <g id="text_40">
      <!-- 0.6 -->
      <g transform="translate(582.83942 187.88903)scale(0.1 -0.1)">
       <use xlink:href="#DejaVuSans-30"/>
       <use xlink:href="#DejaVuSans-2e" x="63.623047"/>
       <use xlink:href="#DejaVuSans-36" x="95.410156"/>
      </g>
     </g>
    </g>
    <g id="ytick_17">
     <g id="line2d_79">
      <path d="M 605.742545 134.586826 
L 995.328 134.586826 
" clip-path="url(#p3eb4b6042d)" style="fill: none; stroke: #b0b0b0; stroke-width: 0.8; stroke-linecap: square"/>
     </g>
     <g id="line2d_80">
      <g>
       <use xlink:href="#m28a605f1cb" x="605.742545" y="134.586826" style="stroke: #000000; stroke-width: 0.8"/>
      </g>
     </g>
     <g id="text_41">
      <!-- 0.8 -->
      <g transform="translate(582.83942 138.386044)scale(0.1 -0.1)">
       <use xlink:href="#DejaVuSans-30"/>
       <use xlink:href="#DejaVuSans-2e" x="63.623047"/>
       <use xlink:href="#DejaVuSans-38" x="95.410156"/>
      </g>
     </g>
    </g>
    <g id="ytick_18">
     <g id="line2d_81">
      <path d="M 605.742545 85.08384 
L 995.328 85.08384 
" clip-path="url(#p3eb4b6042d)" style="fill: none; stroke: #b0b0b0; stroke-width: 0.8; stroke-linecap: square"/>
     </g>
     <g id="line2d_82">
      <g>
       <use xlink:href="#m28a605f1cb" x="605.742545" y="85.08384" style="stroke: #000000; stroke-width: 0.8"/>
      </g>
     </g>
     <g id="text_42">
      <!-- 1.0 -->
      <g transform="translate(582.83942 88.883059)scale(0.1 -0.1)">
       <use xlink:href="#DejaVuSans-31"/>
       <use xlink:href="#DejaVuSans-2e" x="63.623047"/>
       <use xlink:href="#DejaVuSans-30" x="95.410156"/>
      </g>
     </g>
    </g>
   </g>
   <g id="line2d_83">
    <g clip-path="url(#p3eb4b6042d)">
     <use xlink:href="#mbd21cdce4f" x="623.450975" y="85.08384" style="fill: #bf00bf; stroke: #bf00bf"/>
     <use xlink:href="#mbd21cdce4f" x="674.046489" y="124.990424" style="fill: #bf00bf; stroke: #bf00bf"/>
     <use xlink:href="#mbd21cdce4f" x="724.642002" y="170.393325" style="fill: #bf00bf; stroke: #bf00bf"/>
     <use xlink:href="#mbd21cdce4f" x="775.237516" y="221.106411" style="fill: #bf00bf; stroke: #bf00bf"/>
     <use xlink:href="#mbd21cdce4f" x="825.83303" y="276.824744" style="fill: #bf00bf; stroke: #bf00bf"/>
     <use xlink:href="#mbd21cdce4f" x="876.428543" y="337.130767" style="fill: #bf00bf; stroke: #bf00bf"/>
     <use xlink:href="#mbd21cdce4f" x="927.024057" y="401.504449" style="fill: #bf00bf; stroke: #bf00bf"/>
     <use xlink:href="#mbd21cdce4f" x="977.61957" y="469.33344" style="fill: #bf00bf; stroke: #bf00bf"/>
    </g>
   </g>
   <g id="line2d_84">
    <path d="M 800.535273 247.855845 
" clip-path="url(#p3eb4b6042d)" style="fill: none; stroke: #fef3a5; stroke-width: 1.5; stroke-linecap: square"/>
    <defs>
     <path id="m1fb47baf75" d="M 0 3 
C 0.795609 3 1.55874 2.683901 2.12132 2.12132 
C 2.683901 1.55874 3 0.795609 3 0 
C 3 -0.795609 2.683901 -1.55874 2.12132 -2.12132 
C 1.55874 -2.683901 0.795609 -3 0 -3 
C -0.795609 -3 -1.55874 -2.683901 -2.12132 -2.12132 
C -2.683901 -1.55874 -3 -0.795609 -3 0 
C -3 0.795609 -2.683901 1.55874 -2.12132 2.12132 
C -1.55874 2.683901 -0.795609 3 0 3 
z
" style="stroke: #fef3a5"/>
    </defs>
    <g clip-path="url(#p3eb4b6042d)">
     <use xlink:href="#m1fb47baf75" x="800.535273" y="247.855845" style="fill: #fef3a5; stroke: #fef3a5"/>
    </g>
   </g>
   <g id="line2d_85">
    <path d="M 775.237516 221.217051 
L 776.249426 222.283605 
L 777.261336 223.352163 
L 778.273247 224.422722 
L 779.285157 225.495277 
L 780.297067 226.569826 
L 781.308978 227.646365 
L 782.320888 228.724891 
L 783.332798 229.805401 
L 784.344708 230.887891 
L 785.356619 231.972357 
L 786.368529 233.058798 
L 787.380439 234.147208 
L 788.392349 235.237586 
L 789.40426 236.329927 
L 790.41617 237.424228 
L 791.42808 238.520487 
L 792.439991 239.618699 
L 793.451901 240.718861 
L 794.463811 241.820971 
L 795.475721 242.925024 
L 796.487632 244.031017 
L 797.499542 245.138947 
L 798.511452 246.248811 
L 799.523362 247.360605 
L 800.535273 248.474326 
L 801.547183 249.589971 
L 802.559093 250.707537 
L 803.571004 251.827019 
L 804.582914 252.948415 
L 805.594824 254.071721 
L 806.606734 255.196935 
L 807.618645 256.324052 
L 808.630555 257.453069 
L 809.642465 258.583984 
L 810.654375 259.716792 
L 811.666286 260.85149 
L 812.678196 261.988076 
L 813.690106 263.126545 
L 814.702017 264.266895 
L 815.713927 265.409122 
L 816.725837 266.553223 
L 817.737747 267.699194 
L 818.749658 268.847032 
L 819.761568 269.996734 
L 820.773478 271.148296 
L 821.785388 272.301716 
L 822.797299 273.456989 
L 823.809209 274.614113 
L 824.821119 275.773084 
" clip-path="url(#p3eb4b6042d)" style="fill: none; stroke: #4e0387; stroke-width: 1.5; stroke-linecap: square"/>
   </g>
   <g id="line2d_86">
    <path d="M 800.535273 248.474326 
" clip-path="url(#p3eb4b6042d)" style="fill: none; stroke: #60e845; stroke-width: 1.5; stroke-linecap: square"/>
    <defs>
     <path id="ma92a917c85" d="M 0 3 
C 0.795609 3 1.55874 2.683901 2.12132 2.12132 
C 2.683901 1.55874 3 0.795609 3 0 
C 3 -0.795609 2.683901 -1.55874 2.12132 -2.12132 
C 1.55874 -2.683901 0.795609 -3 0 -3 
C -0.795609 -3 -1.55874 -2.683901 -2.12132 -2.12132 
C -2.683901 -1.55874 -3 -0.795609 -3 0 
C -3 0.795609 -2.683901 1.55874 -2.12132 2.12132 
C -1.55874 2.683901 -0.795609 3 0 3 
z
" style="stroke: #60e845"/>
    </defs>
    <g clip-path="url(#p3eb4b6042d)">
     <use xlink:href="#ma92a917c85" x="800.535273" y="248.474326" style="fill: #60e845; stroke: #60e845"/>
    </g>
   </g>
   <g id="line2d_87">
    <path d="M 724.642002 170.47649 
L 726.665823 172.405415 
L 728.689643 174.342828 
L 730.713464 176.288712 
L 732.737285 178.243052 
L 734.761105 180.205832 
L 736.784926 182.177034 
L 738.808746 184.156642 
L 740.832567 186.144639 
L 742.856387 188.141005 
L 744.880208 190.145724 
L 746.904028 192.158776 
L 748.927849 194.180142 
L 750.951669 196.209804 
L 752.97549 198.247742 
L 754.999311 200.293935 
L 757.023131 202.348363 
L 759.046952 204.411006 
L 761.070772 206.481843 
L 763.094593 208.560852 
L 765.118413 210.648011 
L 767.142234 212.7433 
L 769.166054 214.846695 
L 771.189875 216.958174 
L 773.213695 219.077715 
L 775.237516 221.205294 
L 777.261336 223.340887 
L 779.285157 225.484471 
L 781.308978 227.636022 
L 783.332798 229.795517 
L 785.356619 231.962929 
L 787.380439 234.138235 
L 789.40426 236.321409 
L 791.42808 238.512426 
L 793.451901 240.71126 
L 795.475721 242.917887 
L 797.499542 245.132279 
L 799.523362 247.35441 
L 801.547183 249.584254 
L 803.571004 251.821784 
L 805.594824 254.066973 
L 807.618645 256.319794 
L 809.642465 258.580219 
L 811.666286 260.848221 
L 813.690106 263.123772 
L 815.713927 265.406844 
L 817.737747 267.697409 
L 819.761568 269.995437 
L 821.785388 272.300902 
L 823.809209 274.613773 
" clip-path="url(#p3eb4b6042d)" style="fill: none; stroke: #8e9151; stroke-width: 1.5; stroke-linecap: square"/>
   </g>
   <g id="line2d_88">
    <path d="M 800.535273 248.468369 
" clip-path="url(#p3eb4b6042d)" style="fill: none; stroke: #97d7f0; stroke-width: 1.5; stroke-linecap: square"/>
    <defs>
     <path id="m4a6aae7970" d="M 0 3 
C 0.795609 3 1.55874 2.683901 2.12132 2.12132 
C 2.683901 1.55874 3 0.795609 3 0 
C 3 -0.795609 2.683901 -1.55874 2.12132 -2.12132 
C 1.55874 -2.683901 0.795609 -3 0 -3 
C -0.795609 -3 -1.55874 -2.683901 -2.12132 -2.12132 
C -2.683901 -1.55874 -3 -0.795609 -3 0 
C -3 0.795609 -2.683901 1.55874 -2.12132 2.12132 
C -1.55874 2.683901 -0.795609 3 0 3 
z
" style="stroke: #97d7f0"/>
    </defs>
    <g clip-path="url(#p3eb4b6042d)">
     <use xlink:href="#m4a6aae7970" x="800.535273" y="248.468369" style="fill: #97d7f0; stroke: #97d7f0"/>
    </g>
   </g>
   <g id="patch_9">
    <path d="M 605.742545 488.54592 
L 605.742545 65.87136 
" style="fill: none; stroke: #000000; stroke-width: 0.8; stroke-linejoin: miter; stroke-linecap: square"/>
   </g>
   <g id="patch_10">
    <path d="M 995.328 488.54592 
L 995.328 65.87136 
" style="fill: none; stroke: #000000; stroke-width: 0.8; stroke-linejoin: miter; stroke-linecap: square"/>
   </g>
   <g id="patch_11">
    <path d="M 605.742545 488.54592 
L 995.328 488.54592 
" style="fill: none; stroke: #000000; stroke-width: 0.8; stroke-linejoin: miter; stroke-linecap: square"/>
   </g>
   <g id="patch_12">
    <path d="M 605.742545 65.87136 
L 995.328 65.87136 
" style="fill: none; stroke: #000000; stroke-width: 0.8; stroke-linejoin: miter; stroke-linecap: square"/>
   </g>
   <g id="text_43">
    <!-- Hermite -->
    <g transform="translate(776.414335 59.87136)scale(0.12 -0.12)">
     <defs>
      <path id="DejaVuSans-48" d="M 628 4666 
L 1259 4666 
L 1259 2753 
L 3553 2753 
L 3553 4666 
L 4184 4666 
L 4184 0 
L 3553 0 
L 3553 2222 
L 1259 2222 
L 1259 0 
L 628 0 
L 628 4666 
z
" transform="scale(0.015625)"/>
      <path id="DejaVuSans-6d" d="M 3328 2828 
Q 3544 3216 3844 3400 
Q 4144 3584 4550 3584 
Q 5097 3584 5394 3201 
Q 5691 2819 5691 2113 
L 5691 0 
L 5113 0 
L 5113 2094 
Q 5113 2597 4934 2840 
Q 4756 3084 4391 3084 
Q 3944 3084 3684 2787 
Q 3425 2491 3425 1978 
L 3425 0 
L 2847 0 
L 2847 2094 
Q 2847 2600 2669 2842 
Q 2491 3084 2119 3084 
Q 1678 3084 1418 2786 
Q 1159 2488 1159 1978 
L 1159 0 
L 581 0 
L 581 3500 
L 1159 3500 
L 1159 2956 
Q 1356 3278 1631 3431 
Q 1906 3584 2284 3584 
Q 2666 3584 2933 3390 
Q 3200 3197 3328 2828 
z
" transform="scale(0.015625)"/>
     </defs>
     <use xlink:href="#DejaVuSans-48"/>
     <use xlink:href="#DejaVuSans-65" x="75.195312"/>
     <use xlink:href="#DejaVuSans-72" x="136.71875"/>
     <use xlink:href="#DejaVuSans-6d" x="176.082031"/>
     <use xlink:href="#DejaVuSans-69" x="273.494141"/>
     <use xlink:href="#DejaVuSans-74" x="301.277344"/>
     <use xlink:href="#DejaVuSans-65" x="340.486328"/>
    </g>
   </g>
   <g id="legend_2">
    <g id="patch_13">
     <path d="M 872.003 161.94011 
L 988.328 161.94011 
Q 990.328 161.94011 990.328 159.94011 
L 990.328 72.87136 
Q 990.328 70.87136 988.328 70.87136 
L 872.003 70.87136 
Q 870.003 70.87136 870.003 72.87136 
L 870.003 159.94011 
Q 870.003 161.94011 872.003 161.94011 
z
" style="fill: #ffffff; opacity: 0.8; stroke: #cccccc; stroke-linejoin: miter"/>
    </g>
    <g id="line2d_89">
     <g>
      <use xlink:href="#mbd21cdce4f" x="884.003" y="78.969798" style="fill: #bf00bf; stroke: #bf00bf"/>
     </g>
    </g>
    <g id="text_44">
     <!-- start points -->
     <g transform="translate(902.003 82.469798)scale(0.1 -0.1)">
      <use xlink:href="#DejaVuSans-73"/>
      <use xlink:href="#DejaVuSans-74" x="52.099609"/>
      <use xlink:href="#DejaVuSans-61" x="91.308594"/>
      <use xlink:href="#DejaVuSans-72" x="152.587891"/>
      <use xlink:href="#DejaVuSans-74" x="193.701172"/>
      <use xlink:href="#DejaVuSans-20" x="232.910156"/>
      <use xlink:href="#DejaVuSans-70" x="264.697266"/>
      <use xlink:href="#DejaVuSans-6f" x="328.173828"/>
      <use xlink:href="#DejaVuSans-69" x="389.355469"/>
      <use xlink:href="#DejaVuSans-6e" x="417.138672"/>
      <use xlink:href="#DejaVuSans-74" x="480.517578"/>
      <use xlink:href="#DejaVuSans-73" x="519.726562"/>
     </g>
    </g>
    <g id="line2d_90">
     <path d="M 874.003 93.647923 
L 884.003 93.647923 
L 894.003 93.647923 
" style="fill: none; stroke: #fef3a5; stroke-width: 1.5; stroke-linecap: square"/>
     <g>
      <use xlink:href="#m1fb47baf75" x="884.003" y="93.647923" style="fill: #fef3a5; stroke: #fef3a5"/>
     </g>
    </g>
    <g id="text_45">
     <!-- 1: (0.525, 0.342) -->
     <g transform="translate(902.003 97.147923)scale(0.1 -0.1)">
      <use xlink:href="#DejaVuSans-31"/>
      <use xlink:href="#DejaVuSans-3a" x="63.623047"/>
      <use xlink:href="#DejaVuSans-20" x="97.314453"/>
      <use xlink:href="#DejaVuSans-28" x="129.101562"/>
      <use xlink:href="#DejaVuSans-30" x="168.115234"/>
      <use xlink:href="#DejaVuSans-2e" x="231.738281"/>
      <use xlink:href="#DejaVuSans-35" x="263.525391"/>
      <use xlink:href="#DejaVuSans-32" x="327.148438"/>
      <use xlink:href="#DejaVuSans-35" x="390.771484"/>
      <use xlink:href="#DejaVuSans-2c" x="454.394531"/>
      <use xlink:href="#DejaVuSans-20" x="486.181641"/>
      <use xlink:href="#DejaVuSans-30" x="517.96875"/>
      <use xlink:href="#DejaVuSans-2e" x="581.591797"/>
      <use xlink:href="#DejaVuSans-33" x="613.378906"/>
      <use xlink:href="#DejaVuSans-34" x="677.001953"/>
      <use xlink:href="#DejaVuSans-32" x="740.625"/>
      <use xlink:href="#DejaVuSans-29" x="804.248047"/>
     </g>
    </g>
    <g id="line2d_91">
     <path d="M 874.003 108.326048 
L 884.003 108.326048 
L 894.003 108.326048 
" style="fill: none; stroke: #4e0387; stroke-width: 1.5; stroke-linecap: square"/>
    </g>
    <g id="text_46">
     <!-- count = 2 -->
     <g transform="translate(902.003 111.826048)scale(0.1 -0.1)">
      <defs>
       <path id="DejaVuSans-63" d="M 3122 3366 
L 3122 2828 
Q 2878 2963 2633 3030 
Q 2388 3097 2138 3097 
Q 1578 3097 1268 2742 
Q 959 2388 959 1747 
Q 959 1106 1268 751 
Q 1578 397 2138 397 
Q 2388 397 2633 464 
Q 2878 531 3122 666 
L 3122 134 
Q 2881 22 2623 -34 
Q 2366 -91 2075 -91 
Q 1284 -91 818 406 
Q 353 903 353 1747 
Q 353 2603 823 3093 
Q 1294 3584 2113 3584 
Q 2378 3584 2631 3529 
Q 2884 3475 3122 3366 
z
" transform="scale(0.015625)"/>
       <path id="DejaVuSans-75" d="M 544 1381 
L 544 3500 
L 1119 3500 
L 1119 1403 
Q 1119 906 1312 657 
Q 1506 409 1894 409 
Q 2359 409 2629 706 
Q 2900 1003 2900 1516 
L 2900 3500 
L 3475 3500 
L 3475 0 
L 2900 0 
L 2900 538 
Q 2691 219 2414 64 
Q 2138 -91 1772 -91 
Q 1169 -91 856 284 
Q 544 659 544 1381 
z
M 1991 3584 
L 1991 3584 
z
" transform="scale(0.015625)"/>
      </defs>
      <use xlink:href="#DejaVuSans-63"/>
      <use xlink:href="#DejaVuSans-6f" x="54.980469"/>
      <use xlink:href="#DejaVuSans-75" x="116.162109"/>
      <use xlink:href="#DejaVuSans-6e" x="179.541016"/>
      <use xlink:href="#DejaVuSans-74" x="242.919922"/>
      <use xlink:href="#DejaVuSans-20" x="282.128906"/>
      <use xlink:href="#DejaVuSans-3d" x="313.916016"/>
      <use xlink:href="#DejaVuSans-20" x="397.705078"/>
      <use xlink:href="#DejaVuSans-32" x="429.492188"/>
     </g>
    </g>
    <g id="line2d_92">
     <path d="M 874.003 123.004173 
L 884.003 123.004173 
L 894.003 123.004173 
" style="fill: none; stroke: #60e845; stroke-width: 1.5; stroke-linecap: square"/>
     <g>
      <use xlink:href="#ma92a917c85" x="884.003" y="123.004173" style="fill: #60e845; stroke: #60e845"/>
     </g>
    </g>
    <g id="text_47">
     <!-- 2: (0.525, 0.340) -->
     <g transform="translate(902.003 126.504173)scale(0.1 -0.1)">
      <use xlink:href="#DejaVuSans-32"/>
      <use xlink:href="#DejaVuSans-3a" x="63.623047"/>
      <use xlink:href="#DejaVuSans-20" x="97.314453"/>
      <use xlink:href="#DejaVuSans-28" x="129.101562"/>
      <use xlink:href="#DejaVuSans-30" x="168.115234"/>
      <use xlink:href="#DejaVuSans-2e" x="231.738281"/>
      <use xlink:href="#DejaVuSans-35" x="263.525391"/>
      <use xlink:href="#DejaVuSans-32" x="327.148438"/>
      <use xlink:href="#DejaVuSans-35" x="390.771484"/>
      <use xlink:href="#DejaVuSans-2c" x="454.394531"/>
      <use xlink:href="#DejaVuSans-20" x="486.181641"/>
      <use xlink:href="#DejaVuSans-30" x="517.96875"/>
      <use xlink:href="#DejaVuSans-2e" x="581.591797"/>
      <use xlink:href="#DejaVuSans-33" x="613.378906"/>
      <use xlink:href="#DejaVuSans-34" x="677.001953"/>
      <use xlink:href="#DejaVuSans-30" x="740.625"/>
      <use xlink:href="#DejaVuSans-29" x="804.248047"/>
     </g>
    </g>
    <g id="line2d_93">
     <path d="M 874.003 137.682298 
L 884.003 137.682298 
L 894.003 137.682298 
" style="fill: none; stroke: #8e9151; stroke-width: 1.5; stroke-linecap: square"/>
    </g>
    <g id="text_48">
     <!-- count = 3 -->
     <g transform="translate(902.003 141.182298)scale(0.1 -0.1)">
      <use xlink:href="#DejaVuSans-63"/>
      <use xlink:href="#DejaVuSans-6f" x="54.980469"/>
      <use xlink:href="#DejaVuSans-75" x="116.162109"/>
      <use xlink:href="#DejaVuSans-6e" x="179.541016"/>
      <use xlink:href="#DejaVuSans-74" x="242.919922"/>
      <use xlink:href="#DejaVuSans-20" x="282.128906"/>
      <use xlink:href="#DejaVuSans-3d" x="313.916016"/>
      <use xlink:href="#DejaVuSans-20" x="397.705078"/>
      <use xlink:href="#DejaVuSans-33" x="429.492188"/>
     </g>
    </g>
    <g id="line2d_94">
     <path d="M 874.003 152.360423 
L 884.003 152.360423 
L 894.003 152.360423 
" style="fill: none; stroke: #97d7f0; stroke-width: 1.5; stroke-linecap: square"/>
     <g>
      <use xlink:href="#m4a6aae7970" x="884.003" y="152.360423" style="fill: #97d7f0; stroke: #97d7f0"/>
     </g>
    </g>
    <g id="text_49">
     <!-- 3: (0.525, 0.340) -->
     <g transform="translate(902.003 155.860423)scale(0.1 -0.1)">
      <use xlink:href="#DejaVuSans-33"/>
      <use xlink:href="#DejaVuSans-3a" x="63.623047"/>
      <use xlink:href="#DejaVuSans-20" x="97.314453"/>
      <use xlink:href="#DejaVuSans-28" x="129.101562"/>
      <use xlink:href="#DejaVuSans-30" x="168.115234"/>
      <use xlink:href="#DejaVuSans-2e" x="231.738281"/>
      <use xlink:href="#DejaVuSans-35" x="263.525391"/>
      <use xlink:href="#DejaVuSans-32" x="327.148438"/>
      <use xlink:href="#DejaVuSans-35" x="390.771484"/>
      <use xlink:href="#DejaVuSans-2c" x="454.394531"/>
      <use xlink:href="#DejaVuSans-20" x="486.181641"/>
      <use xlink:href="#DejaVuSans-30" x="517.96875"/>
      <use xlink:href="#DejaVuSans-2e" x="581.591797"/>
      <use xlink:href="#DejaVuSans-33" x="613.378906"/>
      <use xlink:href="#DejaVuSans-34" x="677.001953"/>
      <use xlink:href="#DejaVuSans-30" x="740.625"/>
      <use xlink:href="#DejaVuSans-29" x="804.248047"/>
     </g>
    </g>
   </g>
  </g>
  <g id="text_50">
   <!-- Interpolation -->
   <g transform="translate(497.659219 22.376216)scale(0.15 -0.15)">
    <defs>
     <path id="DejaVuSans-Bold-49" d="M 588 4666 
L 1791 4666 
L 1791 0 
L 588 0 
L 588 4666 
z
" transform="scale(0.015625)"/>
     <path id="DejaVuSans-Bold-6e" d="M 4056 2131 
L 4056 0 
L 2931 0 
L 2931 347 
L 2931 1631 
Q 2931 2084 2911 2256 
Q 2891 2428 2841 2509 
Q 2775 2619 2662 2680 
Q 2550 2741 2406 2741 
Q 2056 2741 1856 2470 
Q 1656 2200 1656 1722 
L 1656 0 
L 538 0 
L 538 3500 
L 1656 3500 
L 1656 2988 
Q 1909 3294 2193 3439 
Q 2478 3584 2822 3584 
Q 3428 3584 3742 3212 
Q 4056 2841 4056 2131 
z
" transform="scale(0.015625)"/>
     <path id="DejaVuSans-Bold-74" d="M 1759 4494 
L 1759 3500 
L 2913 3500 
L 2913 2700 
L 1759 2700 
L 1759 1216 
Q 1759 972 1856 886 
Q 1953 800 2241 800 
L 2816 800 
L 2816 0 
L 1856 0 
Q 1194 0 917 276 
Q 641 553 641 1216 
L 641 2700 
L 84 2700 
L 84 3500 
L 641 3500 
L 641 4494 
L 1759 4494 
z
" transform="scale(0.015625)"/>
     <path id="DejaVuSans-Bold-65" d="M 4031 1759 
L 4031 1441 
L 1416 1441 
Q 1456 1047 1700 850 
Q 1944 653 2381 653 
Q 2734 653 3104 758 
Q 3475 863 3866 1075 
L 3866 213 
Q 3469 63 3072 -14 
Q 2675 -91 2278 -91 
Q 1328 -91 801 392 
Q 275 875 275 1747 
Q 275 2603 792 3093 
Q 1309 3584 2216 3584 
Q 3041 3584 3536 3087 
Q 4031 2591 4031 1759 
z
M 2881 2131 
Q 2881 2450 2695 2645 
Q 2509 2841 2209 2841 
Q 1884 2841 1681 2658 
Q 1478 2475 1428 2131 
L 2881 2131 
z
" transform="scale(0.015625)"/>
     <path id="DejaVuSans-Bold-72" d="M 3138 2547 
Q 2991 2616 2845 2648 
Q 2700 2681 2553 2681 
Q 2122 2681 1889 2404 
Q 1656 2128 1656 1613 
L 1656 0 
L 538 0 
L 538 3500 
L 1656 3500 
L 1656 2925 
Q 1872 3269 2151 3426 
Q 2431 3584 2822 3584 
Q 2878 3584 2943 3579 
Q 3009 3575 3134 3559 
L 3138 2547 
z
" transform="scale(0.015625)"/>
     <path id="DejaVuSans-Bold-70" d="M 1656 506 
L 1656 -1331 
L 538 -1331 
L 538 3500 
L 1656 3500 
L 1656 2988 
Q 1888 3294 2169 3439 
Q 2450 3584 2816 3584 
Q 3463 3584 3878 3070 
Q 4294 2556 4294 1747 
Q 4294 938 3878 423 
Q 3463 -91 2816 -91 
Q 2450 -91 2169 54 
Q 1888 200 1656 506 
z
M 2400 2772 
Q 2041 2772 1848 2508 
Q 1656 2244 1656 1747 
Q 1656 1250 1848 986 
Q 2041 722 2400 722 
Q 2759 722 2948 984 
Q 3138 1247 3138 1747 
Q 3138 2247 2948 2509 
Q 2759 2772 2400 2772 
z
" transform="scale(0.015625)"/>
     <path id="DejaVuSans-Bold-6f" d="M 2203 2784 
Q 1831 2784 1636 2517 
Q 1441 2250 1441 1747 
Q 1441 1244 1636 976 
Q 1831 709 2203 709 
Q 2569 709 2762 976 
Q 2956 1244 2956 1747 
Q 2956 2250 2762 2517 
Q 2569 2784 2203 2784 
z
M 2203 3584 
Q 3106 3584 3614 3096 
Q 4122 2609 4122 1747 
Q 4122 884 3614 396 
Q 3106 -91 2203 -91 
Q 1297 -91 786 396 
Q 275 884 275 1747 
Q 275 2609 786 3096 
Q 1297 3584 2203 3584 
z
" transform="scale(0.015625)"/>
     <path id="DejaVuSans-Bold-6c" d="M 538 4863 
L 1656 4863 
L 1656 0 
L 538 0 
L 538 4863 
z
" transform="scale(0.015625)"/>
     <path id="DejaVuSans-Bold-61" d="M 2106 1575 
Q 1756 1575 1579 1456 
Q 1403 1338 1403 1106 
Q 1403 894 1545 773 
Q 1688 653 1941 653 
Q 2256 653 2472 879 
Q 2688 1106 2688 1447 
L 2688 1575 
L 2106 1575 
z
M 3816 1997 
L 3816 0 
L 2688 0 
L 2688 519 
Q 2463 200 2181 54 
Q 1900 -91 1497 -91 
Q 953 -91 614 226 
Q 275 544 275 1050 
Q 275 1666 698 1953 
Q 1122 2241 2028 2241 
L 2688 2241 
L 2688 2328 
Q 2688 2594 2478 2717 
Q 2269 2841 1825 2841 
Q 1466 2841 1156 2769 
Q 847 2697 581 2553 
L 581 3406 
Q 941 3494 1303 3539 
Q 1666 3584 2028 3584 
Q 2975 3584 3395 3211 
Q 3816 2838 3816 1997 
z
" transform="scale(0.015625)"/>
     <path id="DejaVuSans-Bold-69" d="M 538 3500 
L 1656 3500 
L 1656 0 
L 538 0 
L 538 3500 
z
M 538 4863 
L 1656 4863 
L 1656 3950 
L 538 3950 
L 538 4863 
z
" transform="scale(0.015625)"/>
    </defs>
    <use xlink:href="#DejaVuSans-Bold-49"/>
    <use xlink:href="#DejaVuSans-Bold-6e" x="37.207031"/>
    <use xlink:href="#DejaVuSans-Bold-74" x="108.398438"/>
    <use xlink:href="#DejaVuSans-Bold-65" x="156.201172"/>
    <use xlink:href="#DejaVuSans-Bold-72" x="224.023438"/>
    <use xlink:href="#DejaVuSans-Bold-70" x="273.339844"/>
    <use xlink:href="#DejaVuSans-Bold-6f" x="344.921875"/>
    <use xlink:href="#DejaVuSans-Bold-6c" x="413.623047"/>
    <use xlink:href="#DejaVuSans-Bold-61" x="447.900391"/>
    <use xlink:href="#DejaVuSans-Bold-74" x="515.380859"/>
    <use xlink:href="#DejaVuSans-Bold-69" x="563.183594"/>
    <use xlink:href="#DejaVuSans-Bold-6f" x="597.460938"/>
    <use xlink:href="#DejaVuSans-Bold-6e" x="666.162109"/>
   </g>
  </g>
 </g>
 <defs>
  <clipPath id="p37f27453c6">
   <rect x="138.24" y="65.87136" width="389.585455" height="422.67456"/>
  </clipPath>
  <clipPath id="p3eb4b6042d">
   <rect x="605.742545" y="65.87136" width="389.585455" height="422.67456"/>
  </clipPath>
 </defs>
</svg>
