<?xml version="1.0" encoding="UTF-8" standalone="no"?>
<!DOCTYPE svg PUBLIC "-//W3C//DTD SVG 1.1//EN"
 "http://www.w3.org/Graphics/SVG/1.1/DTD/svg11.dtd">
<!-- Generated by graphviz version 2.50.0 (20211204.2007)
 -->
<!-- Title: new_graph Pages: 1 -->
<svg width="175pt" height="305pt"
 viewBox="0.00 0.00 175.00 305.00" xmlns="http://www.w3.org/2000/svg" xmlns:xlink="http://www.w3.org/1999/xlink">
<g id="graph0" class="graph" transform="scale(1 1) rotate(0) translate(4 301)">
<title>new_graph</title>
<polygon fill="white" stroke="transparent" points="-4,4 -4,-301 171,-301 171,4 -4,4"/>
<!-- x1 -->
<g id="node1" class="node">
<title>x1</title>
<ellipse fill="none" stroke="black" cx="115" cy="-279" rx="27" ry="18"/>
<text text-anchor="middle" x="115" y="-275.3" font-family="Times New Roman,serif" font-size="14.00">x1</text>
</g>
<!-- x1&#45;&gt;x1 -->
<g id="edge1" class="edge">
<title>x1&#45;&gt;x1</title>
<path fill="none" stroke="black" d="M139.53,-286.75C150.51,-287.49 160,-284.91 160,-279 160,-275.03 155.72,-272.56 149.57,-271.59"/>
<polygon fill="black" stroke="black" points="149.65,-268.09 139.53,-271.25 149.41,-275.09 149.65,-268.09"/>
<text text-anchor="middle" x="163.5" y="-275.3" font-family="Times New Roman,serif" font-size="14.00">1</text>
</g>
<!-- x2 -->
<g id="node2" class="node">
<title>x2</title>
<ellipse fill="none" stroke="black" cx="27" cy="-192" rx="27" ry="18"/>
<text text-anchor="middle" x="27" y="-188.3" font-family="Times New Roman,serif" font-size="14.00">x2</text>
</g>
<!-- x1&#45;&gt;x2 -->
<g id="edge2" class="edge">
<title>x1&#45;&gt;x2</title>
<path fill="none" stroke="black" d="M100.07,-263.58C86.08,-250.07 64.99,-229.7 49.06,-214.31"/>
<polygon fill="black" stroke="black" points="51.33,-211.64 41.71,-207.21 46.47,-216.67 51.33,-211.64"/>
<text text-anchor="middle" x="80.5" y="-231.8" font-family="Times New Roman,serif" font-size="14.00">1</text>
</g>
<!-- x4 -->
<g id="node3" class="node">
<title>x4</title>
<ellipse fill="none" stroke="black" cx="70" cy="-105" rx="27" ry="18"/>
<text text-anchor="middle" x="70" y="-101.3" font-family="Times New Roman,serif" font-size="14.00">x4</text>
</g>
<!-- x1&#45;&gt;x4 -->
<g id="edge3" class="edge">
<title>x1&#45;&gt;x4</title>
<path fill="none" stroke="black" d="M110.63,-261.06C105.31,-240.47 96.04,-204.68 88,-174 84.42,-160.34 80.4,-145.15 77.07,-132.59"/>
<polygon fill="black" stroke="black" points="80.41,-131.53 74.46,-122.76 73.64,-133.32 80.41,-131.53"/>
<text text-anchor="middle" x="100.5" y="-188.3" font-family="Times New Roman,serif" font-size="14.00">5</text>
</g>
<!-- x2&#45;&gt;x2 -->
<g id="edge4" class="edge">
<title>x2&#45;&gt;x2</title>
<path fill="none" stroke="black" d="M51.53,-199.75C62.51,-200.49 72,-197.91 72,-192 72,-188.03 67.72,-185.56 61.57,-184.59"/>
<polygon fill="black" stroke="black" points="61.65,-181.09 51.53,-184.25 61.41,-188.09 61.65,-181.09"/>
<text text-anchor="middle" x="75.5" y="-188.3" font-family="Times New Roman,serif" font-size="14.00">1</text>
</g>
<!-- x2&#45;&gt;x4 -->
<g id="edge5" class="edge">
<title>x2&#45;&gt;x4</title>
<path fill="none" stroke="black" d="M35.29,-174.61C41.48,-162.38 50.05,-145.44 57.12,-131.46"/>
<polygon fill="black" stroke="black" points="60.34,-132.84 61.73,-122.34 54.1,-129.68 60.34,-132.84"/>
<text text-anchor="middle" x="55.5" y="-144.8" font-family="Times New Roman,serif" font-size="14.00">1</text>
</g>
<!-- x4&#45;&gt;x4 -->
<g id="edge10" class="edge">
<title>x4&#45;&gt;x4</title>
<path fill="none" stroke="black" d="M94.53,-112.75C105.51,-113.49 115,-110.91 115,-105 115,-101.03 110.72,-98.56 104.57,-97.59"/>
<polygon fill="black" stroke="black" points="104.65,-94.09 94.53,-97.25 104.41,-101.09 104.65,-94.09"/>
<text text-anchor="middle" x="118.5" y="-101.3" font-family="Times New Roman,serif" font-size="14.00">5</text>
</g>
<!-- x3 -->
<g id="node4" class="node">
<title>x3</title>
<ellipse fill="none" stroke="black" cx="100" cy="-18" rx="27" ry="18"/>
<text text-anchor="middle" x="100" y="-14.3" font-family="Times New Roman,serif" font-size="14.00">x3</text>
</g>
<!-- x4&#45;&gt;x3 -->
<g id="edge9" class="edge">
<title>x4&#45;&gt;x3</title>
<path fill="none" stroke="black" d="M68.57,-86.82C68.34,-76.92 69.09,-64.42 73,-54 74.62,-49.68 76.97,-45.46 79.61,-41.53"/>
<polygon fill="black" stroke="black" points="82.47,-43.55 85.71,-33.46 76.89,-39.33 82.47,-43.55"/>
<text text-anchor="middle" x="76.5" y="-57.8" font-family="Times New Roman,serif" font-size="14.00">2</text>
</g>
<!-- x3&#45;&gt;x1 -->
<g id="edge6" class="edge">
<title>x3&#45;&gt;x1</title>
<path fill="none" stroke="black" d="M109.72,-35.08C117.2,-48.44 126.92,-68.24 131,-87 143.5,-144.56 131.06,-213.85 122.2,-251.12"/>
<polygon fill="black" stroke="black" points="118.71,-250.63 119.7,-261.18 125.51,-252.31 118.71,-250.63"/>
<text text-anchor="middle" x="139.5" y="-144.8" font-family="Times New Roman,serif" font-size="14.00">8</text>
</g>
<!-- x3&#45;&gt;x4 -->
<g id="edge8" class="edge">
<title>x3&#45;&gt;x4</title>
<path fill="none" stroke="black" d="M94.09,-35.76C89.9,-47.62 84.19,-63.79 79.39,-77.4"/>
<polygon fill="black" stroke="black" points="75.95,-76.61 75.93,-87.21 82.56,-78.94 75.95,-76.61"/>
<text text-anchor="middle" x="90.5" y="-57.8" font-family="Times New Roman,serif" font-size="14.00">4</text>
</g>
<!-- x3&#45;&gt;x3 -->
<g id="edge7" class="edge">
<title>x3&#45;&gt;x3</title>
<path fill="none" stroke="black" d="M124.53,-25.75C135.51,-26.49 145,-23.91 145,-18 145,-14.03 140.72,-11.56 134.57,-10.59"/>
<polygon fill="black" stroke="black" points="134.65,-7.09 124.53,-10.25 134.41,-14.09 134.65,-7.09"/>
<text text-anchor="middle" x="148.5" y="-14.3" font-family="Times New Roman,serif" font-size="14.00">1</text>
</g>
</g>
</svg>
